<?xml version="1.0" encoding="utf-8"?>
<!-- Generator: Adobe Illustrator 27.0.0, SVG Export Plug-In . SVG Version: 6.00 Build 0)  -->
<svg version="1.1" xmlns="http://www.w3.org/2000/svg" xmlns:xlink="http://www.w3.org/1999/xlink" x="0px" y="0px"
	 viewBox="0 0 258.9 312.9" style="enable-background:new 0 0 258.9 312.9;" xml:space="preserve">
<style type="text/css">
	.st0{fill:none;stroke:#000000;stroke-width:0.25;stroke-miterlimit:10;}
	.st1{fill:none;}
</style>
<g id="Cut">
	<path id="Cut_00000141416376097188928170000002184228219323650185_" class="st0" d="M248.2,165.5c-1.6-12.9-5.4-25.3-11.1-37
		c-1.7-3.5-3.7-7.1-5.8-10.5c-15.7-25.2-39.5-43-67-51V51.9c0-7.6-5-14.1-11.8-16.5c0.1-1.3,0.2-2.3,0.2-2.8
		c0-11.9-9.7-21.6-21.6-21.6c-11.9,0-21.6,9.7-21.6,21.6c0,0.9,0,1.7,0.1,2.6c-7.2,2.1-12.5,8.8-12.5,16.7V67
		c-27.3,8-51.1,25.7-66.8,50.6c-2.1,3.3-4.1,6.9-5.9,10.5c-5.8,11.7-9.6,24.2-11.2,37.1c-0.6,4.8-0.9,9.6-1,14.2c0,0.4,0,0.8,0,1.2
		c0,21.4,5.8,42.4,16.7,60.7c4.4,7.3,9.5,14,15.2,20.1c22.3,23.9,53.9,37.6,86.6,37.6c32.8,0,64.5-13.8,86.8-37.9
		c5.3-5.7,10-11.9,14-18.3c11.6-18.7,17.7-40.2,17.7-62.3v-0.5C249.1,175.3,248.8,170.3,248.2,165.5z M130.7,19.9
		c4.7,0,8.4,3.8,8.4,8.4s-3.8,8.4-8.4,8.4c-4.7,0-8.4-3.8-8.4-8.4S126,19.9,130.7,19.9z M130.4,273.1c-51,0-92.4-41.4-92.4-92.4
		s41.4-92.4,92.4-92.4s92.4,41.4,92.4,92.4S181.4,273.1,130.4,273.1z"/>
</g>
<g id="Top_Text">
	<path id="Top_x5F_Text_x5F_00000114777616231353832840000008860502798074583481_x5F_" class="st1" d="M24.8,180.7
		c0-58.3,47.3-105.6,105.6-105.6S236,122.3,236,180.7s-47.3,105.6-105.6,105.6S24.8,239,24.8,180.7z"/>
	<text id="Top_Text_00000066496758127445491210000003491210374885800863_">	<textPath  xlink:href="#Top_x5F_Text_x5F_00000114777616231353832840000008860502798074583481_x5F_" startOffset="133.203%">
<tspan  style="font-family:'ArialMT'; font-size:21.5202px;">MELISSA CARDINALS</tspan>	</textPath>
</text>
</g>
<g id="Bottom_Text">
	<path id="Bottom_x5F_Text_x5F_00000066494814659281094870000011449236354666504125_x5F_" class="st1" d="M236,180.7
		c0,58.3-47.3,105.6-105.6,105.6S24.8,239,24.8,180.7S72.1,75.1,130.4,75.1S236,122.3,236,180.7z"/>
	<text id="Bottom_Text_00000143593618023553793430000008892142500481614985_">	<textPath  xlink:href="#Bottom_x5F_Text_x5F_00000066494814659281094870000011449236354666504125_x5F_" startOffset="133.203%">
<tspan  style="font-family:'ArialMT'; font-size:21.5202px;">2023 4A D1 STATE CHAMPIONS</tspan>	</textPath>
</text>
</g>
</svg>
