<?xml version="1.0" encoding="utf-8"?>
<!-- Generator: Adobe Illustrator 27.0.0, SVG Export Plug-In . SVG Version: 6.00 Build 0)  -->
<svg version="1.1" xmlns="http://www.w3.org/2000/svg" xmlns:xlink="http://www.w3.org/1999/xlink" x="0px" y="0px"
	 viewBox="0 0 349 412.7" style="enable-background:new 0 0 349 412.7;" xml:space="preserve">
<style type="text/css">
	.st0{fill:none;stroke:#000000;stroke-width:0.25;stroke-miterlimit:10;}
	.st1{fill:none;}
</style>
<g id="Cut">
	<path id="Cut_00000141416376097188928170000002184228219323650185_" class="st0" d="M334.2,217.8c-2.2-17.4-7.2-34.2-15-49.9
		c-2.4-4.8-5-9.5-7.9-14.2c-21.2-34-53.4-58-90.5-68.9V64.5c0-10.3-6.7-19.1-16-22.2c0.2-1.7,0.2-3.1,0.2-3.7
		c0-16.1-13.1-29.1-29.1-29.1c-16.1,0-29.1,13.1-29.1,29.1c0,1.2,0.1,2.3,0.2,3.5c-9.7,2.9-16.8,11.9-16.8,22.5v20.4
		c-36.9,10.8-69,34.7-90.1,68.3c-2.9,4.5-5.5,9.3-8,14.2c-7.8,15.8-12.9,32.7-15.2,50c-0.8,6.5-1.3,12.9-1.3,19.1c0,0.6,0,1.1,0,1.7
		c0,28.9,7.8,57.2,22.5,82c5.9,9.8,12.8,18.9,20.5,27.2c30.1,32.3,72.8,50.8,116.9,50.8c44.3,0,87-18.6,117.2-51.1
		c7.1-7.7,13.5-16,18.9-24.7c15.6-25.2,23.9-54.3,23.9-84.1v-0.7C335.5,231,335,224.4,334.2,217.8z M175.6,21.3
		c6.3,0,11.4,5.1,11.4,11.4s-5.1,11.4-11.4,11.4c-6.3,0-11.4-5.1-11.4-11.4S169.3,21.3,175.6,21.3z M175.2,363.1
		c-68.9,0-124.7-55.9-124.7-124.7s55.9-124.7,124.7-124.7s124.7,55.9,124.7,124.7S244.1,363.1,175.2,363.1z"/>
</g>
<g id="Top_Text">
	<path id="Top_x5F_Text_x5F_00000021821147198014830190000009496805579123450517_x5F_" class="st1" d="M32.6,238.3
		c0-78.7,63.8-142.6,142.6-142.6s142.6,63.8,142.6,142.6s-63.8,142.6-142.6,142.6S32.6,317,32.6,238.3z"/>
	<text id="Top_Text_00000139978367442841991630000013726607920533119639_">	<textPath  xlink:href="#Top_x5F_Text_x5F_00000021821147198014830190000009496805579123450517_x5F_" startOffset="133.203%">
<tspan  style="font-family:'ArialMT'; font-size:29.0525px;">MELISSA CARDINALS</tspan>	</textPath>
</text>
</g>
<g id="Bottom_Text">
	<path id="Bottom_x5F_Text_x5F_00000177478767306040207160000015453980271727048595_x5F_" class="st1" d="M317.8,238.3
		c0,78.7-63.8,142.6-142.6,142.6S32.6,317,32.6,238.3S96.5,95.7,175.2,95.7S317.8,159.6,317.8,238.3z"/>
	<text id="Bottom_Text_00000143593618023553793430000008892142500481614985_">	<textPath  xlink:href="#Bottom_x5F_Text_x5F_00000177478767306040207160000015453980271727048595_x5F_" startOffset="133.203%">
<tspan  style="font-family:'ArialMT'; font-size:29.0525px;">2023 4A D1 STATE CHAMPIONS</tspan>	</textPath>
</text>
</g>
</svg>
