<?xml version="1.0" encoding="utf-8"?>
<!-- Generator: Adobe Illustrator 27.0.0, SVG Export Plug-In . SVG Version: 6.00 Build 0)  -->
<svg version="1.1" xmlns="http://www.w3.org/2000/svg" xmlns:xlink="http://www.w3.org/1999/xlink" x="0px" y="0px"
	 viewBox="0 0 563.6 681.1" style="enable-background:new 0 0 563.6 681.1;" xml:space="preserve">
<style type="text/css">
	.st0{fill:none;stroke:#000000;stroke-width:0.25;stroke-miterlimit:10;}
	.st1{fill:none;}
</style>
<g id="Cut">
	<path id="Cut_00000141416376097188928170000002184228219323650185_" class="st0" d="M485.2,357.1c-2.8-22.1-9.2-43.5-19.1-63.6
		c-3-6.1-6.4-12.2-10.1-18c-27-43.3-68-73.9-115.3-87.8v-26c0-13.2-8.5-24.3-20.4-28.3c0.2-2.2,0.3-3.9,0.3-4.8
		c0-20.5-16.6-37.1-37.1-37.1c-20.5,0-37.1,16.6-37.1,37.1c0,1.5,0.1,2.9,0.2,4.4c-12.4,3.7-21.4,15.1-21.4,28.7v26
		c-47,13.8-87.9,44.2-114.8,87.1c-3.6,5.8-7,11.8-10.1,18.1c-10,20.2-16.5,41.6-19.3,63.8c-1.1,8.3-1.6,16.5-1.7,24.4
		c0,0.7,0,1.4,0,2.1c0,36.8,9.9,72.9,28.7,104.4c7.5,12.5,16.3,24.1,26.1,34.6c38.4,41.1,92.7,64.7,148.9,64.7
		c56.5,0,110.9-23.7,149.3-65.1c9.1-9.8,17.2-20.4,24-31.5c19.9-32.1,30.4-69.1,30.4-107.1v-0.9
		C486.8,373.9,486.2,365.4,485.2,357.1z M283,106.8c8,0,14.5,6.5,14.5,14.5s-6.5,14.5-14.5,14.5s-14.5-6.5-14.5-14.5
		S275,106.8,283,106.8z M282.6,542.2c-87.8,0-158.9-71.2-158.9-158.9s71.2-158.9,158.9-158.9s158.9,71.2,158.9,158.9
		S370.3,542.2,282.6,542.2z"/>
</g>
<g id="Top_Text">
	<path id="Top_x5F_Text_x5F_00000172440402190648808150000002419816994612912015_x5F_" class="st1" d="M100.9,383.2
		c0-100.3,81.3-181.6,181.6-181.6s181.6,81.3,181.6,181.6s-81.3,181.6-181.6,181.6S100.9,483.5,100.9,383.2z"/>
	<text id="Top_Text_00000115515365399647491570000015726972441327673779_">	<textPath  xlink:href="#Top_x5F_Text_x5F_00000172440402190648808150000002419816994612912015_x5F_" startOffset="133.203%">
<tspan  style="font-family:'ArialMT'; font-size:37.015px;">MELISSA CARDINALS</tspan>	</textPath>
</text>
</g>
<g id="Bottom_Text">
	<path id="Bottom_x5F_Text_x5F_00000155844865058300911520000004955700317405712261_x5F_" class="st1" d="M464.2,383.2
		c0,100.3-81.3,181.6-181.6,181.6s-181.6-81.3-181.6-181.6s81.3-181.6,181.6-181.6S464.2,282.9,464.2,383.2z"/>
	<text id="Bottom_Text_00000143593618023553793430000008892142500481614985_">	<textPath  xlink:href="#Bottom_x5F_Text_x5F_00000155844865058300911520000004955700317405712261_x5F_" startOffset="133.203%">
<tspan  style="font-family:'ArialMT'; font-size:37.015px;">2023 4A D1 STATE CHAMPIONS</tspan>	</textPath>
</text>
</g>
</svg>
