<?xml version="1.0" encoding="utf-8" ?>
<svg xmlns="http://www.w3.org/2000/svg" xmlns:xlink="http://www.w3.org/1999/xlink" width="259" height="313">
	<defs/>
	<path fill="none" stroke="black" stroke-width="0.25" stroke-miterlimit="10" transform="matrix(1.00032 0 0 1.00032 0.00863647 0)" d="M248.2 165.5C246.6 152.6 242.8 140.2 237.1 128.5C235.4 125 233.4 121.4 231.3 118C215.6 92.8 191.8 75 164.3 67L164.3 51.9C164.3 44.3 159.3 37.8 152.5 35.4C152.6 34.1 152.7 33.1 152.7 32.6C152.7 20.7 143 11 131.1 11C119.2 11 109.5 20.7 109.5 32.6C109.5 33.5 109.5 34.3 109.6 35.2C102.4 37.3 97.1 44 97.1 51.9L97.1 67C69.8 75 46 92.7 30.3 117.6C28.2 120.9 26.2 124.5 24.4 128.1C18.6 139.8 14.8 152.3 13.2 165.2C12.6 170 12.3 174.8 12.2 179.4C12.2 179.8 12.2 180.2 12.2 180.6C12.2 202 18 223 28.9 241.3C33.3 248.6 38.4 255.3 44.1 261.4C66.4 285.3 98 299 130.7 299C163.5 299 195.2 285.2 217.5 261.1C222.8 255.4 227.5 249.2 231.5 242.8C243.1 224.1 249.2 202.6 249.2 180.5L249.2 180C249.1 175.3 248.8 170.3 248.2 165.5ZM130.7 19.9C135.4 19.9 139.1 23.7 139.1 28.3C139.1 32.9 135.3 36.7 130.7 36.7C126 36.7 122.3 32.9 122.3 28.3C122.3 23.7 126 19.9 130.7 19.9ZM130.4 273.1C79.4 273.1 38 231.7 38 180.7C38 129.7 79.4 88.3 130.4 88.3C181.4 88.3 222.8 129.7 222.8 180.7C222.8 231.7 181.4 273.1 130.4 273.1Z"/>
	<defs/>
	<text transform="matrix(1.00032 0 0 1.00032 0.00863647 0)" font-size="12" font-family="Segoe UI" x="" y="">
			
	</text>
	<defs/>
	<text transform="matrix(1.00032 0 0 1.00032 0.00863647 0)" font-size="12" font-family="Segoe UI" x="" y="">
			
	</text>
	<defs/>
	<text transform="matrix(1.00032 0 0 1.00032 0.00863647 0)" font-size="12" font-family="Segoe UI" x="" y="">
			
	</text>
	<defs/>
	<text transform="matrix(1.00032 0 0 1.00032 0.00863647 0)" font-size="12" font-family="Segoe UI" x="" y="">
			
	</text>
	<path d="M48.3391 127.422Q47.8406 128.203 47.3499 128.987Q46.8558 128.681 46.3618 128.376Q46.3718 128.675 46.4044 129.192Q46.4399 129.708 46.3863 130.138Q46.3417 130.652 46.1674 131.247Q45.9973 131.842 45.5984 132.542Q44.8798 133.836 43.5302 134.283Q42.1814 134.75 40.8377 134.054Q39.7367 133.483 39.3163 132.631Q38.9026 131.774 39.0155 130.638Q39.1477 129.489 39.7557 128.102Q40.386 126.72 41.2219 125.194Q41.1015 125.119 40.9811 125.045Q40.4497 124.716 39.974 124.706Q39.4978 124.697 39.0617 124.962Q38.6459 125.216 38.268 125.696Q37.8929 126.178 37.5609 126.748Q37.1632 127.441 36.848 128.39Q36.5429 129.339 36.3684 130.425Q36.3433 130.472 36.3182 130.519Q35.4946 130.081 34.6709 129.644Q34.8239 129.047 35.2123 127.967Q35.6134 126.888 36.1631 125.927Q36.8183 124.809 37.4762 124.083Q38.1399 123.364 38.9 123.011Q39.647 122.67 40.4407 122.751Q41.233 122.837 42.1192 123.409Q45.2292 125.415 48.3391 127.422ZM45.0664 127.574Q43.7753 126.774 42.4841 125.975Q42.0557 126.767 41.5144 127.861Q40.9873 128.958 40.798 129.663Q40.5831 130.504 40.7481 131.185Q40.9177 131.862 41.6471 132.258Q42.4708 132.706 43.1657 132.422Q43.8612 132.145 44.4466 131.111Q44.9436 130.255 45.0395 129.356Q45.1447 128.454 45.0664 127.574ZM52.5839 116.279Q53.7383 117.228 53.6919 118.804Q53.6732 120.371 52.3776 122.069Q51.6612 123.041 50.8381 123.692Q50.0205 124.353 49.3495 124.723Q48.5 124.14 47.6505 123.557Q47.6788 123.516 47.7071 123.475Q48.7513 123.118 49.6924 122.457Q50.6387 121.809 51.2279 121.013Q51.9698 120.035 52.086 119.246Q52.2096 118.456 51.5506 117.935Q51.0449 117.535 50.5453 117.633Q50.0454 117.734 49.1872 118.465Q48.8702 118.738 48.3806 119.195Q47.8938 119.656 47.463 120.014Q46.2752 121.019 45.3075 121.116Q44.3381 121.221 43.4526 120.613Q42.8972 120.232 42.5783 119.645Q42.262 119.055 42.2346 118.277Q42.2088 117.519 42.537 116.601Q42.8748 115.685 43.5709 114.752Q44.2309 113.886 45.1047 113.153Q45.9847 112.431 46.7139 112.072Q47.4749 112.692 48.2359 113.312Q48.2024 113.353 48.1689 113.394Q47.2845 113.666 46.3213 114.308Q45.3629 114.961 44.72 115.807Q44.0605 116.693 43.9235 117.534Q43.7943 118.373 44.4139 118.816Q44.962 119.208 45.5024 119.042Q46.0366 118.887 46.79 118.225Q47.2077 117.861 47.7056 117.396Q48.2062 116.935 48.5568 116.642Q49.6278 115.755 50.6429 115.631Q51.6633 115.523 52.5839 116.279ZM62.8349 109.817Q62.1724 110.46 61.5158 111.11Q61.1122 110.706 60.7085 110.301Q60.6284 111.352 60.296 112.237Q59.9737 113.123 59.2831 113.857Q57.9641 115.301 56.0707 115.171Q54.1648 115.076 52.1375 113.345Q51.0831 112.444 50.5378 111.415Q49.9996 110.38 49.9135 109.321Q49.8455 108.279 50.2133 107.287Q50.5925 106.295 51.3161 105.521Q51.9791 104.824 52.625 104.416Q53.2729 104.013 54.1184 103.702Q52.4484 102.03 50.7785 100.358Q51.5364 99.608 52.3013 98.8654Q57.5681 104.341 62.8349 109.817ZM59.6182 109.21Q57.4065 106.995 55.1949 104.78Q54.3846 105.125 53.8428 105.496Q53.3026 105.871 52.7746 106.423Q51.6138 107.665 51.7728 109.085Q51.9507 110.497 53.4256 111.806Q54.8787 113.097 56.0901 113.258Q57.2958 113.433 58.3104 112.338Q58.8583 111.76 59.1759 110.931Q59.5023 110.102 59.6182 109.21ZM61.6842 93.0338Q61.6406 93.0683 61.597 93.1029Q61.2723 93.2486 60.7798 93.5245Q60.2881 93.8031 59.9598 94.0714Q58.9206 94.934 58.7941 95.725Q58.674 96.5149 59.5649 97.5519Q59.6859 97.6926 59.8068 97.8334Q61.2168 96.6425 62.6455 95.4767Q63.1281 96.0785 63.6108 96.6803Q62.2271 97.8091 60.8612 98.9617Q63.9106 102.515 66.9601 106.069Q66.2634 106.672 65.5722 107.283Q62.4565 103.787 59.3409 100.291Q58.8328 100.747 58.3275 101.206Q57.807 100.637 57.2864 100.067Q57.7989 99.6017 58.3143 99.1394Q58.1941 99.0046 58.0739 98.8697Q56.7808 97.4189 56.9227 95.9067Q57.0869 94.3895 58.7082 93.027Q59.2597 92.5752 59.7405 92.2612Q60.2225 91.95 60.6425 91.7162Q61.1633 92.375 61.6842 93.0338ZM83.9626 94.3446Q83.1577 94.7871 82.3559 95.2378Q82.0688 94.7327 81.7817 94.2275Q81.6477 94.495 81.4299 94.9636Q81.215 95.4326 80.9624 95.7843Q80.6771 96.2141 80.2385 96.6533Q79.8031 97.0949 79.115 97.5198Q77.8555 98.3181 76.449 98.0694Q75.0486 97.8298 74.202 96.5751Q73.5082 95.547 73.5424 94.601Q73.5848 93.6531 74.2365 92.7037Q74.9102 91.7533 76.1151 90.8224Q77.3329 89.9093 78.7948 88.972Q78.7248 88.8489 78.6549 88.7258Q78.346 88.1825 77.9341 87.9451Q77.5208 87.7092 77.012 87.7322Q76.5259 87.7555 75.9643 87.9957Q75.4033 88.2395 74.8373 88.5819Q74.1528 89.0023 73.4164 89.6878Q72.6869 90.3796 72.0047 91.2559Q71.9605 91.285 71.9164 91.3142Q71.4023 90.536 70.8883 89.7578Q71.3117 89.3046 72.1795 88.5355Q73.0558 87.7754 74.0034 87.1917Q75.1165 86.5229 76.0415 86.201Q76.9669 85.8886 77.8002 85.945Q78.6158 86.0052 79.2712 86.4583Q79.9228 86.9148 80.4266 87.8413Q82.1946 91.0929 83.9626 94.3446ZM81.0289 92.903Q80.2786 91.5828 79.5282 90.2626Q78.7751 90.7513 77.7769 91.4512Q76.7863 92.1632 76.2796 92.6935Q75.6835 93.3323 75.499 94.011Q75.3198 94.6895 75.7707 95.3864Q76.2799 96.1736 77.0301 96.2544Q77.7772 96.3414 78.7916 95.7104Q79.64 95.1956 80.155 94.4521Q80.6781 93.7118 81.0289 92.903ZM92.9833 86.6242Q93.5411 88.0103 92.7634 89.3631Q92.0109 90.722 90.0784 91.5813Q88.9891 92.088 87.9571 92.263Q86.9227 92.4507 86.1554 92.4539Q85.6895 91.535 85.2236 90.616Q85.2683 90.5933 85.3131 90.5706Q86.402 90.7576 87.5442 90.6295Q88.682 90.5166 89.5752 90.1041Q90.686 89.606 91.1594 88.9729Q91.6388 88.3424 91.3106 87.5693Q91.0587 86.9761 90.5781 86.8202Q90.0954 86.6667 89.002 86.8916Q88.5961 86.9774 87.9513 87.142Q87.3062 87.3113 86.7586 87.4175Q85.2363 87.7284 84.3403 87.3492Q83.4374 86.9778 82.9521 86.0194Q82.6477 85.4183 82.6504 84.7497Q82.6563 84.0804 83.0068 83.3835Q83.348 82.706 84.0748 82.0594Q84.8079 81.4188 85.86 80.9373Q86.846 80.4984 87.9532 80.2795Q89.0582 80.0737 89.8591 80.1138Q90.2294 81.0227 90.5997 81.9316Q90.5513 81.9513 90.5029 81.9711Q89.6076 81.7807 88.4682 81.8755Q87.3245 81.9843 86.3627 82.4141Q85.3647 82.8722 84.8436 83.543Q84.3288 84.2167 84.6599 84.9028Q84.9527 85.5096 85.506 85.6233Q86.0477 85.7444 87.0224 85.5269Q87.5603 85.4096 88.2155 85.2429Q88.8702 85.081 89.3143 84.9937Q90.6631 84.7371 91.6032 85.119Q92.5386 85.5189 92.9833 86.6242ZM98.4309 87.9369Q97.5509 88.2487 96.672 88.5696Q94.0318 81.4455 91.3915 74.3213Q92.4074 73.9504 93.4245 73.59Q95.9277 80.7635 98.4309 87.9369ZM110.438 84.5913Q109.556 84.7815 108.673 84.9805Q108.545 84.4238 108.417 83.867Q107.805 84.7125 107.066 85.2844Q106.332 85.8625 105.366 86.1162Q103.491 86.6395 101.954 85.5264Q100.384 84.4379 99.5812 81.8955Q99.1637 80.5732 99.2483 79.4106Q99.3416 78.2473 99.8312 77.303Q100.326 76.3829 101.162 75.7367Q102.006 75.0978 103.023 74.8262Q103.946 74.589 104.702 74.587Q105.455 74.5908 106.324 74.7786Q105.794 72.4756 105.264 70.1725Q106.285 69.9425 107.305 69.7226Q108.871 77.157 110.438 84.5913ZM108.07 82.3634Q107.368 79.3133 106.666 76.2632Q105.809 76.1228 105.161 76.1486Q104.512 76.1786 103.779 76.3652Q102.147 76.8005 101.533 78.088Q100.937 79.379 101.494 81.2713Q102.043 83.1356 102.983 83.9147Q103.911 84.7024 105.343 84.3137Q106.107 84.1158 106.806 83.5831Q107.511 83.0558 108.07 82.3634ZM123.92 82.7228Q122.718 82.8119 121.511 82.9163Q119.047 80.7727 116.463 78.6948Q115.913 79.3449 115.37 79.9981Q115.643 81.7989 115.916 83.5996Q114.987 83.745 114.057 83.9Q112.773 76.4116 111.488 68.9233Q112.564 68.7442 113.638 68.576Q114.369 73.394 115.099 78.2119Q117.589 75.1148 120.21 72.0824Q121.494 71.9674 122.773 71.8681Q120.211 74.6135 117.762 77.4205Q120.933 80.0232 123.92 82.7228ZM131.699 69.0885Q131.645 69.088 131.591 69.0874Q131.257 68.9967 130.718 68.9016Q130.179 68.8091 129.769 68.811Q128.459 68.8274 127.879 69.3622Q127.303 69.9 127.343 71.2666Q127.348 71.4521 127.354 71.6376Q129.149 71.6002 130.934 71.5927Q130.931 72.3641 130.928 73.1356Q129.2 73.1427 127.462 73.1781Q127.595 77.8588 127.729 82.5395Q126.829 82.5693 125.927 82.6076Q125.707 77.9301 125.486 73.2527Q124.816 73.2864 124.145 73.3243Q124.099 72.5542 124.053 71.7841Q124.734 71.7456 125.414 71.7114Q125.405 71.531 125.397 71.3505Q125.305 69.4093 126.346 68.3245Q127.403 67.2496 129.462 67.2118Q130.153 67.2076 130.705 67.2658Q131.258 67.3268 131.717 67.4089Q131.708 68.2487 131.699 69.0885ZM136.745 69.9431Q135.591 69.8835 134.441 69.8363Q134.475 68.8847 134.509 67.9332Q135.679 67.9813 136.854 68.0419Q136.8 68.9925 136.745 69.9431ZM135.892 82.9137Q135.786 84.8248 134.8 85.7526Q133.837 86.6907 132.301 86.6483Q131.936 86.6419 131.341 86.5565Q130.747 86.4749 130.348 86.3575Q130.347 85.4835 130.345 84.6095Q130.392 84.6094 130.438 84.6094Q130.697 84.717 131.135 84.8556Q131.573 84.9963 131.989 85.0019Q132.657 85.0148 133.071 84.8298Q133.488 84.6465 133.707 84.2628Q133.928 83.8796 134.009 83.3304Q134.092 82.7813 134.121 81.9909Q134.284 77.5993 134.446 73.2078Q133.225 73.1696 132.009 73.1454Q132.02 72.374 132.031 71.6026Q134.264 71.6573 136.513 71.7591Q136.203 77.3364 135.892 82.9137ZM144.481 75.3065Q143.209 75.1441 141.939 74.9977Q142.09 73.6143 142.241 72.2309Q143.544 72.3812 144.85 72.5479Q144.666 73.9272 144.481 75.3065ZM144.512 80.7029Q142.682 83.6843 140.948 86.698Q140.26 86.6233 139.574 86.5539Q140.73 83.4568 141.944 80.3735Q143.226 80.5295 144.512 80.7029ZM156.78 86.1169Q155.901 85.8746 155.021 85.6412Q155.168 85.0789 155.314 84.5166Q155.035 84.6157 154.558 84.8013Q154.083 84.9893 153.664 85.0669Q153.169 85.1782 152.561 85.1901Q151.955 85.2061 151.188 85.0352Q149.775 84.7378 148.979 83.5851Q148.135 82.4343 148.405 80.9448Q148.626 79.7245 149.329 79.0744Q150.011 78.4236 151.103 78.1914Q152.214 77.9737 153.686 78.1384Q155.163 78.3258 156.837 78.6668Q156.873 78.5298 156.909 78.3927Q157.066 77.7879 156.939 77.3313Q156.811 76.8749 156.437 76.5383Q156.079 76.2177 155.52 76.0009Q154.96 75.7873 154.331 75.6413Q153.568 75.4696 152.59 75.4529Q151.617 75.4458 150.554 75.6043Q150.503 75.5945 150.452 75.5847Q150.627 74.6687 150.803 73.7527Q151.403 73.7201 152.522 73.7673Q153.646 73.827 154.703 74.0635Q155.939 74.3541 156.81 74.7643Q157.678 75.1822 158.228 75.8017Q158.765 76.4119 158.917 77.193Q159.064 77.9741 158.779 78.9896Q157.78 82.5532 156.78 86.1169ZM155.698 83.0424Q156.081 81.5728 156.463 80.1033Q155.595 79.9315 154.413 79.7424Q153.234 79.568 152.52 79.5986Q151.672 79.6456 151.083 80.0064Q150.498 80.3707 150.335 81.1844Q150.15 82.1035 150.611 82.681Q151.067 83.2608 152.2 83.5093Q153.144 83.7268 154.015 83.5492Q154.892 83.3799 155.698 83.0424ZM168.795 86.9409Q168.225 88.3224 166.72 88.7456Q165.191 89.1765 163.15 88.4217Q161.992 88.0163 161.115 87.4165Q160.231 86.8258 159.673 86.2913Q159.98 85.3077 160.286 84.3242Q160.335 84.3392 160.383 84.3543Q161.041 85.2501 161.963 85.9596Q162.876 86.6787 163.824 87.0138Q164.999 87.4438 165.8 87.3288Q166.606 87.2208 166.911 86.4383Q167.145 85.8378 166.897 85.3857Q166.647 84.9342 165.676 84.3202Q165.315 84.0946 164.722 83.7569Q164.128 83.4232 163.652 83.1137Q162.321 82.2673 161.937 81.3684Q161.543 80.4709 161.864 79.4456Q162.065 78.8024 162.535 78.3258Q163.009 77.8511 163.753 77.5981Q164.477 77.3531 165.464 77.4016Q166.454 77.4603 167.57 77.8591Q168.612 78.2437 169.591 78.873Q170.563 79.5121 171.107 80.1Q170.737 81.009 170.367 81.918Q170.319 81.8984 170.27 81.8787Q169.759 81.1157 168.84 80.3731Q167.912 79.6399 166.896 79.2662Q165.837 78.8892 164.981 79.0013Q164.13 79.1209 163.889 79.8434Q163.675 80.4825 163.999 80.9522Q164.311 81.4195 165.18 81.9504Q165.66 82.2462 166.262 82.5901Q166.862 82.938 167.254 83.1905Q168.443 83.9661 168.858 84.8997Q169.248 85.8394 168.795 86.9409ZM183.978 98.4993Q183.196 97.9915 182.411 97.4917Q182.715 97.0082 183.019 96.5247Q181.972 96.677 181.029 96.5466Q180.088 96.4268 179.215 95.9144Q177.507 94.9474 177.21 93.0722Q176.876 91.1933 178.111 88.8305Q178.754 87.6015 179.635 86.8401Q180.524 86.0845 181.537 85.7645Q182.54 85.4664 183.591 85.605Q184.646 85.7555 185.568 86.2912Q186.4 86.7855 186.947 87.3273Q187.49 87.8724 187.986 88.6313Q189.245 86.6311 190.504 84.6309Q191.412 85.2083 192.315 85.7949Q188.147 92.1471 183.978 98.4993ZM183.841 95.2187Q185.508 92.5697 187.175 89.9207Q186.653 89.2037 186.166 88.7553Q185.675 88.3097 185.015 87.9153Q183.537 87.056 182.185 87.5259Q180.847 88.0131 179.9 89.7432Q178.966 91.4477 179.08 92.6653Q179.181 93.8806 180.48 94.6287Q181.17 95.0363 182.054 95.1642Q182.94 95.3013 183.841 95.2187ZM200.042 93.6132Q199.999 93.5784 199.956 93.5435Q199.741 93.2594 199.363 92.8407Q198.982 92.4237 198.648 92.1637Q197.578 91.3447 196.781 91.3987Q195.986 91.4589 195.173 92.5583Q195.063 92.7075 194.953 92.8567Q196.422 93.9623 197.875 95.0941Q197.395 95.6986 196.916 96.3032Q195.51 95.207 194.087 94.1356Q191.301 97.8994 188.515 101.663Q187.776 101.121 187.032 100.587Q189.747 96.7713 192.462 92.9561Q191.909 92.565 191.353 92.1776Q191.793 91.5434 192.232 90.9093Q192.795 91.3022 193.356 91.6989Q193.461 91.5517 193.566 91.4045Q194.693 89.8211 196.193 89.6189Q197.704 89.4381 199.388 90.7114Q199.95 91.1478 200.363 91.5463Q200.774 91.9468 201.095 92.3043Q200.569 92.9588 200.042 93.6132ZM198.867 110.499Q198.208 109.858 197.544 109.225Q197.943 108.802 198.342 108.38Q198.047 108.33 197.536 108.26Q197.026 108.193 196.617 108.055Q196.125 107.91 195.579 107.621Q195.033 107.337 194.431 106.807Q193.311 105.846 193.148 104.435Q192.962 103.021 193.915 101.845Q194.696 100.881 195.614 100.641Q196.537 100.408 197.625 100.746Q198.722 101.105 199.954 101.977Q201.175 102.868 202.494 103.987Q202.591 103.884 202.688 103.781Q203.118 103.327 203.225 102.864Q203.33 102.4 203.161 101.922Q202.998 101.465 202.606 101Q202.212 100.538 201.723 100.099Q201.126 99.5722 200.262 99.0743Q199.396 98.5857 198.369 98.197Q198.327 98.1629 198.286 98.1289Q198.881 97.4102 199.475 96.6915Q200.028 96.9611 201.007 97.5579Q201.981 98.1663 202.809 98.8958Q203.767 99.7589 204.341 100.546Q204.908 101.337 205.097 102.149Q205.277 102.946 205.035 103.705Q204.789 104.462 204.051 105.215Q201.459 107.857 198.867 110.499ZM199.388 107.273Q200.431 106.169 201.474 105.066Q200.789 104.49 199.832 103.744Q198.868 103.011 198.218 102.685Q197.439 102.307 196.74 102.332Q196.043 102.363 195.508 102.997Q194.904 103.714 195.041 104.451Q195.171 105.187 196.062 105.966Q196.797 106.622 197.656 106.894Q198.514 107.175 199.388 107.273ZM208.956 116.942Q207.793 117.88 206.259 117.516Q204.727 117.18 203.323 115.563Q202.511 114.662 202.037 113.72Q201.55 112.782 201.321 112.047Q202.063 111.332 202.805 110.618Q202.84 110.654 202.875 110.69Q203.018 111.789 203.479 112.849Q203.926 113.911 204.589 114.651Q205.4 115.578 206.15 115.853Q206.899 116.134 207.543 115.594Q208.036 115.18 208.041 114.67Q208.043 114.16 207.499 113.17Q207.295 112.803 206.944 112.229Q206.589 111.657 206.324 111.161Q205.574 109.789 205.673 108.819Q205.762 107.845 206.536 107.101Q207.022 106.634 207.662 106.441Q208.305 106.252 209.076 106.385Q209.826 106.516 210.661 107.026Q211.494 107.545 212.27 108.419Q212.986 109.242 213.529 110.248Q214.059 111.257 214.263 112.044Q213.502 112.664 212.741 113.284Q212.707 113.242 212.674 113.201Q212.586 112.28 212.152 111.206Q211.704 110.133 211.004 109.33Q210.266 108.502 209.468 108.196Q208.67 107.897 208.111 108.414Q207.616 108.872 207.671 109.436Q207.716 109.992 208.216 110.867Q208.489 111.351 208.845 111.934Q209.197 112.519 209.414 112.923Q210.066 114.152 209.984 115.172Q209.883 116.193 208.956 116.942ZM213.191 128.253Q212.691 127.468 212.189 126.698Q212.666 126.384 213.143 126.07Q212.135 125.786 211.338 125.287Q210.539 124.797 209.963 123.978Q208.821 122.401 209.333 120.577Q209.813 118.731 211.918 117.096Q213.013 116.245 214.131 115.919Q215.253 115.6 216.306 115.728Q217.339 115.87 218.234 116.427Q219.125 116.995 219.734 117.855Q220.279 118.639 220.545 119.35Q220.806 120.061 220.935 120.945Q222.91 119.646 224.884 118.348Q225.463 119.237 226.041 120.143Q219.616 124.198 213.191 128.253ZM214.433 125.222Q217.048 123.502 219.663 121.782Q219.493 120.925 219.241 120.324Q218.986 119.723 218.554 119.099Q217.578 117.72 216.158 117.592Q214.742 117.484 213.161 118.664Q211.604 119.826 211.199 120.978Q210.782 122.121 211.646 123.329Q212.098 123.979 212.843 124.452Q213.586 124.934 214.433 125.222Z"/>
</svg>
