<?xml version="1.0" encoding="utf-8" ?>
<svg xmlns="http://www.w3.org/2000/svg" xmlns:xlink="http://www.w3.org/1999/xlink" width="259" height="313">
	<defs/>
	<path fill="none" stroke="black" stroke-width="0.25" stroke-miterlimit="10" transform="matrix(1.00032 0 0 1.00032 0.00863647 0)" d="M248.2 165.5C246.6 152.6 242.8 140.2 237.1 128.5C235.4 125 233.4 121.4 231.3 118C215.6 92.8 191.8 75 164.3 67L164.3 51.9C164.3 44.3 159.3 37.8 152.5 35.4C152.6 34.1 152.7 33.1 152.7 32.6C152.7 20.7 143 11 131.1 11C119.2 11 109.5 20.7 109.5 32.6C109.5 33.5 109.5 34.3 109.6 35.2C102.4 37.3 97.1 44 97.1 51.9L97.1 67C69.8 75 46 92.7 30.3 117.6C28.2 120.9 26.2 124.5 24.4 128.1C18.6 139.8 14.8 152.3 13.2 165.2C12.6 170 12.3 174.8 12.2 179.4C12.2 179.8 12.2 180.2 12.2 180.6C12.2 202 18 223 28.9 241.3C33.3 248.6 38.4 255.3 44.1 261.4C66.4 285.3 98 299 130.7 299C163.5 299 195.2 285.2 217.5 261.1C222.8 255.4 227.5 249.2 231.5 242.8C243.1 224.1 249.2 202.6 249.2 180.5L249.2 180C249.1 175.3 248.8 170.3 248.2 165.5ZM130.7 19.9C135.4 19.9 139.1 23.7 139.1 28.3C139.1 32.9 135.3 36.7 130.7 36.7C126 36.7 122.3 32.9 122.3 28.3C122.3 23.7 126 19.9 130.7 19.9ZM130.4 273.1C79.4 273.1 38 231.7 38 180.7C38 129.7 79.4 88.3 130.4 88.3C181.4 88.3 222.8 129.7 222.8 180.7C222.8 231.7 181.4 273.1 130.4 273.1Z"/>
	<defs/>
	<text transform="matrix(1.00032 0 0 1.00032 0.00863647 0)" font-size="12" font-family="Segoe UI" x="" y="">
			
	</text>
	<defs/>
	<text transform="matrix(1.00032 0 0 1.00032 0.00863647 0)" font-size="12" font-family="Segoe UI" x="" y="">
			
	</text>
	<defs/>
	<text transform="matrix(1.00032 0 0 1.00032 0.00863647 0)" font-size="12" font-family="Segoe UI" x="" y="">
			
	</text>
	<defs/>
	<text transform="matrix(1.00032 0 0 1.00032 0.00863647 0)" font-size="12" font-family="Segoe UI" x="" y="">
			
	</text>
	<text font-size="12" font-family="Arial" x="10, 18.666016, 25.339844, 28.005859, 30.671875, 37.345703, 40.679688, 44.013672, 52.017578, 60.021484, 69.355469, " y="40, ">
			Hello, SVG!
	</text>
</svg>
