<?xml version="1.0" encoding="utf-8" ?>
<svg xmlns="http://www.w3.org/2000/svg" xmlns:xlink="http://www.w3.org/1999/xlink" width="259" height="313">
	<defs/>
	<path fill="none" stroke="black" stroke-width="0.25" stroke-miterlimit="10" transform="matrix(1.00032 0 0 1.00032 0.00863647 0)" d="M248.2 165.5C246.6 152.6 242.8 140.2 237.1 128.5C235.4 125 233.4 121.4 231.3 118C215.6 92.8 191.8 75 164.3 67L164.3 51.9C164.3 44.3 159.3 37.8 152.5 35.4C152.6 34.1 152.7 33.1 152.7 32.6C152.7 20.7 143 11 131.1 11C119.2 11 109.5 20.7 109.5 32.6C109.5 33.5 109.5 34.3 109.6 35.2C102.4 37.3 97.1 44 97.1 51.9L97.1 67C69.8 75 46 92.7 30.3 117.6C28.2 120.9 26.2 124.5 24.4 128.1C18.6 139.8 14.8 152.3 13.2 165.2C12.6 170 12.3 174.8 12.2 179.4C12.2 179.8 12.2 180.2 12.2 180.6C12.2 202 18 223 28.9 241.3C33.3 248.6 38.4 255.3 44.1 261.4C66.4 285.3 98 299 130.7 299C163.5 299 195.2 285.2 217.5 261.1C222.8 255.4 227.5 249.2 231.5 242.8C243.1 224.1 249.2 202.6 249.2 180.5L249.2 180C249.1 175.3 248.8 170.3 248.2 165.5ZM130.7 19.9C135.4 19.9 139.1 23.7 139.1 28.3C139.1 32.9 135.3 36.7 130.7 36.7C126 36.7 122.3 32.9 122.3 28.3C122.3 23.7 126 19.9 130.7 19.9ZM130.4 273.1C79.4 273.1 38 231.7 38 180.7C38 129.7 79.4 88.3 130.4 88.3C181.4 88.3 222.8 129.7 222.8 180.7C222.8 231.7 181.4 273.1 130.4 273.1Z"/>
	<defs/>
	<text transform="matrix(1.00032 0 0 1.00032 0.00863647 0)" font-size="12" font-family="Segoe UI" x="" y="">
			
	</text>
	<defs/>
	<text transform="matrix(1.00032 0 0 1.00032 0.00863647 0)" font-size="12" font-family="Segoe UI" x="" y="">
			
	</text>
	<defs/>
	<text transform="matrix(1.00032 0 0 1.00032 0.00863647 0)" font-size="12" font-family="Segoe UI" x="" y="">
			
	</text>
	<defs/>
	<text transform="matrix(1.00032 0 0 1.00032 0.00863647 0)" font-size="12" font-family="Segoe UI" x="" y="">
			
	</text>
	<path d="M45.4586 132.432Q38.7456 129.946 32.0327 127.461Q32.65 125.853 33.3115 124.245Q38.761 124.454 44.1501 124.926Q45.6413 125.11 46.3711 125.225Q45.7931 124.639 44.7076 123.445Q41.2674 119.345 38.029 115.006Q38.834 113.694 39.6446 112.429Q45.6344 116.349 51.6241 120.268Q51.1466 121.009 50.6823 121.751Q45.5809 118.609 40.4796 115.468Q44.383 120.631 48.5596 125.478Q48.1605 126.252 47.7752 127.026Q41.3332 126.42 34.8043 126.201Q40.4516 128.49 46.099 130.78Q45.7713 131.606 45.4586 132.432ZM53.3413 117.773Q47.5393 113.58 41.7373 109.388Q45.623 104.425 49.8852 99.7502Q50.4882 100.342 51.0912 100.933Q47.6603 104.645 44.4448 108.579Q46.185 109.913 47.9251 111.246Q50.7658 107.756 53.8186 104.417Q54.4222 105.001 55.0259 105.585Q52.0372 108.854 49.2583 112.268Q51.1923 113.75 53.1262 115.232Q56.0264 111.693 59.1296 108.359Q59.73 108.953 60.3304 109.547Q56.6621 113.542 53.3413 117.773ZM62.1026 107.815Q57.1846 102.614 52.2666 97.4126Q53.0774 96.6554 53.9005 95.9054Q58.1242 100.598 62.3479 105.29Q65.0843 102.938 67.9718 100.672Q68.4784 101.348 68.9851 102.024Q65.422 104.854 62.1026 107.815ZM71.1447 100.458Q67.0371 94.5961 62.9295 88.7338Q63.8168 88.1192 64.7127 87.5131Q68.6916 93.4635 72.6706 99.414Q71.9036 99.9329 71.1447 100.458ZM72.4606 94.073Q73.2126 93.5163 73.9731 92.9654Q74.6372 93.8201 75.4009 94.168Q76.1602 94.5214 77.2392 94.3916Q78.3182 94.2742 79.4159 93.677Q80.4005 93.1573 81.0146 92.4789Q81.639 91.8041 81.7692 91.1132Q81.9051 90.4216 81.6146 89.8244Q81.3198 89.2185 80.7229 88.9506Q80.1233 88.686 79.1039 88.8163Q78.4477 88.9006 76.3432 89.4819Q74.2522 90.1087 73.3017 90.1743Q72.0718 90.2794 71.1913 89.8819Q70.3053 89.4914 69.7876 88.6518Q69.2187 87.7291 69.3197 86.5625Q69.4354 85.3928 70.3613 84.2811Q71.3105 83.1767 72.7873 82.3616Q74.4335 81.4887 75.9345 81.2978Q77.4345 81.1284 78.5515 81.696Q79.6588 82.2742 80.2435 83.3914Q79.3433 83.8938 78.4502 84.4039Q77.7006 83.26 76.5248 83.0726Q75.343 82.8982 73.6615 83.7873Q71.934 84.7422 71.467 85.7343Q71.0148 86.7268 71.4656 87.4926Q71.857 88.1574 72.6405 88.2764Q73.412 88.4066 75.8902 87.6282Q78.388 86.9126 79.4089 86.8384Q80.8953 86.7561 81.8619 87.2759Q82.8208 87.804 83.3044 88.8499Q83.7839 89.887 83.5892 91.0932Q83.4104 92.2973 82.5265 93.3532Q81.6671 94.4155 80.296 95.1332Q78.5848 96.071 77.1611 96.2326Q75.7377 96.4164 74.5023 95.8355Q73.2555 95.269 72.4606 94.073ZM84.9352 87.5055Q85.756 87.0654 86.5827 86.632Q87.1165 87.5734 87.8198 88.0282Q88.5184 88.4874 89.5988 88.5144Q90.6764 88.5531 91.8361 88.1191Q92.8718 87.7451 93.5632 87.1613Q94.2626 86.5822 94.4795 85.9175Q94.7013 85.253 94.4945 84.622Q94.2846 83.9817 93.7367 83.6328Q93.1859 83.2867 92.1739 83.2709Q91.522 83.2608 89.3866 83.5335Q87.2526 83.8501 86.3109 83.7763Q85.0888 83.7 84.2794 83.1778Q83.464 82.6612 83.0734 81.7555Q82.6441 80.7602 82.905 79.6237Q83.179 78.4864 84.2351 77.5263Q85.3095 76.5762 86.8562 75.9878Q88.5712 75.365 90.0541 75.3926Q91.5313 75.4397 92.5436 76.1589Q93.5453 76.8865 93.9734 78.0726Q93.0367 78.4418 92.1042 78.819Q91.5207 77.5826 90.4016 77.2296Q89.2745 76.8876 87.5213 77.5221Q85.7094 78.2126 85.1196 79.1233Q84.5424 80.0364 84.8791 80.8588Q85.1714 81.5728 85.9229 81.8052Q86.661 82.0465 89.1903 81.6371Q91.7222 81.2883 92.7268 81.36Q94.1845 81.4886 95.0593 82.138Q95.9257 82.7939 96.265 83.8952Q96.6014 84.9871 96.2589 86.1525Q95.9304 87.318 94.9291 88.2383Q93.947 89.168 92.5042 89.684Q90.6916 90.3679 89.2653 90.3237Q87.8343 90.3002 86.6974 89.5465Q85.5477 88.8045 84.9352 87.5055ZM98.4342 87.4626Q99.2433 79.7953 100.432 72.1067Q101.565 71.8397 102.7 71.5837Q107.316 77.9403 111.559 84.4554Q110.492 84.6358 109.427 84.8269Q108.193 82.8533 106.927 80.8927Q103.867 81.5513 100.823 82.2968Q100.586 84.6016 100.383 86.9038Q99.407 87.1786 98.4342 87.4626ZM100.998 80.6586Q103.501 80.0522 106.015 79.5037Q104.826 77.7277 103.611 75.9631Q102.477 74.3658 101.855 73.3163Q101.868 74.7268 101.644 76.1746Q101.305 78.4173 100.998 80.6586ZM128.824 77.9824Q129.812 78.2201 130.792 78.4662Q130.162 80.7949 128.596 82.0222Q127.058 83.2709 124.81 83.3428Q122.472 83.466 120.93 82.6291Q119.36 81.8141 118.428 80.1063Q117.473 78.406 117.261 76.3662Q117.031 74.1418 117.788 72.3929Q118.579 70.648 120.306 69.6413Q122.053 68.6593 124.22 68.5499Q126.667 68.4712 128.337 69.5386Q129.972 70.6279 130.592 72.6143Q129.576 72.8291 128.562 73.0524Q128 71.4955 126.937 70.7999Q125.859 70.1137 124.244 70.1714Q122.38 70.264 121.178 71.1315Q119.99 72.0107 119.595 73.3794Q119.211 74.7493 119.332 76.1601Q119.488 77.9796 120.167 79.29Q120.831 80.6043 122.044 81.1938Q123.241 81.7964 124.582 81.73Q126.207 81.671 127.312 80.7261Q128.433 79.7921 128.824 77.9824ZM131.498 83.0179Q134.511 75.9474 137.877 68.9624Q139.065 69.0472 140.247 69.1429Q142.803 76.5896 144.925 84.0727Q143.853 83.9279 142.775 83.7929Q142.177 81.5409 141.543 79.2914Q138.369 79.0036 135.242 78.8062Q134.35 80.9353 133.485 83.0711Q132.493 83.0401 131.498 83.0179ZM135.881 77.2943Q138.466 77.4636 141.078 77.693Q140.46 75.6424 139.811 73.5946Q139.19 71.7309 138.9 70.543Q138.486 71.8928 137.826 73.2069Q136.816 75.2453 135.881 77.2943ZM146.444 84.2967Q147.538 77.2224 148.631 70.1482Q152.113 70.7374 155.53 71.4166Q157.611 71.8803 158.605 72.5126Q159.595 73.1541 159.998 74.2645Q160.391 75.3761 160.089 76.5186Q159.701 77.9917 158.415 78.7382Q157.148 79.4998 154.981 79.2838Q155.665 79.81 155.982 80.2447Q156.643 81.1859 157.113 82.4788Q157.86 84.6819 158.563 86.8889Q157.416 86.5797 156.269 86.2844Q155.709 84.6122 155.124 82.9425Q154.588 81.4975 154.199 80.7108Q153.804 79.9256 153.432 79.567Q153.065 79.2111 152.648 79.0161Q152.338 78.8843 151.601 78.7399Q150.489 78.5313 149.368 78.3327Q148.829 81.4653 148.289 84.598Q147.37 84.4437 146.444 84.2967ZM149.646 76.7158Q151.746 77.0972 153.818 77.5125Q155.155 77.8016 155.97 77.7105Q156.79 77.6259 157.323 77.1457Q157.861 76.6681 158.025 75.9945Q158.266 75.0079 157.632 74.1824Q156.991 73.3608 155.283 72.9816Q152.88 72.492 150.449 72.0481Q150.048 74.382 149.646 76.7158ZM160.293 87.382Q162.314 80.5151 164.336 73.6482Q167.038 74.479 169.739 75.3818Q171.566 76.0347 172.444 76.5799Q173.644 77.3442 174.285 78.3963Q175.103 79.7637 175.106 81.379Q175.092 82.9913 174.339 84.7508Q173.697 86.25 172.835 87.2523Q171.982 88.26 171.102 88.7878Q170.23 89.3231 169.391 89.4973Q168.558 89.679 167.538 89.5504Q166.504 89.427 165.26 88.9817Q162.779 88.1478 160.293 87.382ZM162.624 86.3255Q164.118 86.8077 165.609 87.3142Q166.989 87.8055 167.863 87.8471Q168.72 87.8893 169.347 87.618Q170.236 87.2429 171.019 86.3299Q171.809 85.4217 172.418 83.919Q173.26 81.8371 172.957 80.4165Q172.636 78.9953 171.684 78.1931Q170.974 77.6169 169.153 76.9664Q167.529 76.4159 165.905 75.8918Q164.265 81.1086 162.624 86.3255ZM174.167 92.5976Q177.184 86.1062 180.201 79.6148Q181.19 80.0803 182.175 80.5565Q179.028 86.986 175.882 93.4156Q175.026 93.0022 174.167 92.5976ZM178.851 94.9348Q182.226 88.6223 185.601 82.3098Q186.594 82.8478 187.583 83.397Q188.403 90.4075 188.723 97.3189Q191.891 92.6764 195.058 88.0339Q195.936 88.6395 196.807 89.2546Q192.645 95.079 188.484 100.903Q187.688 100.341 186.884 99.7882Q186.669 92.9463 185.955 85.9992Q183.203 90.9055 180.452 95.8118Q179.654 95.3692 178.851 94.9348ZM189.788 101.854Q196.429 97.9361 203.383 94.3984Q204.292 95.1875 205.213 96.0075Q202.787 103.548 199.855 110.774Q199.104 109.99 198.339 109.216Q199.252 107.071 200.122 104.898Q197.751 102.725 195.351 100.693Q193.355 101.868 191.387 103.075Q190.592 102.46 189.788 101.854ZM196.778 99.8678Q198.754 101.553 200.722 103.341Q201.465 101.326 202.173 99.2893Q202.786 97.4135 203.26 96.2826Q202.114 97.1097 200.801 97.7676Q198.776 98.8012 196.778 99.8678ZM200.833 111.83Q206.134 107.02 211.435 102.209Q212.194 103.056 212.94 103.913Q208.153 108.029 203.366 112.146Q205.63 114.916 207.781 117.846Q207.087 118.328 206.393 118.809Q203.717 115.217 200.833 111.83ZM211.157 117.646Q211.75 118.42 212.333 119.201Q211.49 119.881 211.158 120.66Q210.818 121.432 210.962 122.522Q211.084 123.605 211.676 124.701Q212.181 125.681 212.845 126.293Q213.5 126.916 214.184 127.054Q214.869 127.2 215.474 126.925Q216.087 126.646 216.371 126.059Q216.65 125.467 216.539 124.444Q216.463 123.783 215.883 121.644Q215.223 119.501 215.132 118.523Q214.984 117.251 215.352 116.34Q215.708 115.42 216.537 114.885Q217.448 114.298 218.642 114.417Q219.839 114.554 221.008 115.545Q222.161 116.562 223.022 118.125Q223.925 119.863 224.119 121.424Q224.276 122.975 223.687 124.096Q223.08 125.199 221.944 125.746Q221.465 124.818 220.971 123.895Q222.13 123.169 222.329 121.971Q222.507 120.76 221.595 118.997Q220.591 117.179 219.571 116.674Q218.548 116.188 217.787 116.648Q217.127 117.047 217.032 117.858Q216.921 118.654 217.745 121.21Q218.456 123.763 218.513 124.795Q218.558 126.286 218.007 127.232Q217.443 128.167 216.38 128.611Q215.326 129.053 214.135 128.834Q212.947 128.639 211.931 127.767Q210.901 126.92 210.213 125.571Q209.288 123.874 209.116 122.449Q208.905 121.011 209.454 119.75Q209.98 118.469 211.157 117.646Z"/>
	<path d="M25.6189 213.801Q24.7937 213.982 23.9685 214.162Q23.0877 209.528 22.4746 204.948Q23.1038 204.863 23.7093 205.014Q24.708 205.248 25.7264 205.882Q26.7498 206.501 28.1614 207.708Q30.3935 209.508 31.6262 210.038Q32.8623 210.548 33.8397 210.356Q34.865 210.154 35.4489 209.388Q36.0409 208.636 35.8704 207.641Q35.7063 206.592 34.8613 206.071Q34.0202 205.538 32.6829 205.705Q32.6782 204.924 32.682 204.147Q34.7083 204.079 35.8788 204.946Q37.0599 205.787 37.3115 207.437Q37.6077 209.111 36.6808 210.32Q35.7754 211.562 34.1249 211.923Q33.2853 212.106 32.4072 211.973Q31.5289 211.833 30.4798 211.286Q29.4348 210.723 27.5476 209.266Q26.0033 208.002 25.4732 207.649Q24.9446 207.291 24.4326 207.079Q24.9527 210.426 25.6189 213.801ZM31.2587 214.358Q33.7264 213.76 35.341 213.845Q36.954 213.912 37.9925 214.563Q39.0374 215.196 39.4137 216.488Q39.7063 217.435 39.4845 218.26Q39.2732 219.094 38.6007 219.829Q37.9351 220.574 36.846 221.258Q35.7611 221.95 33.7585 222.672Q31.3884 223.527 29.7649 223.584Q28.1383 223.623 27.0132 222.941Q25.8943 222.24 25.4169 220.708Q24.8244 218.651 25.9477 217.106Q27.3387 215.307 31.2587 214.358ZM31.6739 215.997Q28.266 216.899 27.3523 217.992Q26.4532 219.107 26.8007 220.29Q27.1634 221.463 28.5231 221.862Q29.8837 222.239 33.2145 221.114Q36.5637 219.983 37.4419 218.941Q38.3339 217.921 38.0156 216.891Q37.716 215.87 36.5566 215.534Q35.0819 215.094 31.6739 215.997ZM33.0003 234.421Q32.2471 234.803 31.4939 235.186Q29.4745 230.937 27.6599 226.533Q28.2462 226.289 28.8731 226.288Q29.9031 226.272 31.06 226.651Q32.2179 227.015 33.9111 227.871Q36.5357 229.062 37.8632 229.264Q39.1891 229.446 40.0862 229.013Q41.0273 228.559 41.3969 227.667Q41.7771 226.785 41.3565 225.86Q40.9226 224.869 39.9619 224.555Q39.0022 224.229 37.7516 224.731Q37.5357 223.947 37.3293 223.165Q39.2735 222.588 40.6426 223.168Q42.0159 223.721 42.6984 225.296Q43.4156 226.853 42.8272 228.263Q42.2664 229.698 40.7598 230.462Q39.9934 230.851 39.1097 230.942Q38.2244 231.028 37.0707 230.763Q35.9169 230.481 33.7211 229.549Q31.8987 228.704 31.29 228.483Q30.6817 228.258 30.1285 228.173Q31.506 231.331 33.0003 234.421ZM35.7074 235.094Q36.215 235.787 36.7301 236.476Q35.5726 237.466 35.3507 238.409Q35.1347 239.351 35.6554 240.23Q36.2883 241.269 37.4607 241.524Q38.6322 241.763 39.6998 241.076Q40.718 240.421 40.9819 239.373Q41.2592 238.334 40.6738 237.376Q40.4393 236.984 39.9257 236.497Q40.6366 236.185 41.3468 235.871Q41.4103 236.017 41.4595 236.1Q41.9807 236.97 42.9046 237.355Q43.8304 237.729 44.8614 237.075Q45.6779 236.557 45.9121 235.738Q46.155 234.924 45.6957 234.167Q45.2507 233.416 44.4008 233.235Q43.5472 233.038 42.3385 233.519Q42.0914 232.753 41.8538 231.988Q43.5446 231.399 44.8747 231.802Q46.2005 232.172 46.9186 233.396Q47.4295 234.238 47.444 235.212Q47.4732 236.192 46.9901 237.044Q46.5149 237.904 45.7003 238.442Q44.9265 238.954 44.0427 238.997Q43.1569 239.031 42.2975 238.52Q42.6806 239.661 42.2671 240.713Q41.8662 241.775 40.7153 242.549Q39.1592 243.595 37.3278 243.19Q35.4953 242.746 34.4026 240.97Q33.4572 239.357 33.8212 237.716Q34.2131 236.089 35.7074 235.094ZM45.1435 255.145Q46.4249 254.007 47.7064 252.869Q45.7351 250.576 43.8531 248.241Q44.4885 247.746 45.1238 247.25Q50.6316 246.689 56.0324 245.845Q56.4362 246.294 56.844 246.74Q53.43 249.881 50.0161 253.021Q50.632 253.684 51.2557 254.343Q50.6733 254.9 50.0908 255.456Q49.4566 254.786 48.8302 254.112Q47.5689 255.272 46.3075 256.433Q45.7248 255.794 45.1435 255.145ZM48.9112 251.799Q51.3245 249.656 53.7377 247.512Q49.9658 248.09 46.1423 248.533Q47.5039 250.177 48.9112 251.799ZM48.2573 258.493Q55.1811 255.293 61.8871 251.787Q62.5374 252.38 63.1951 252.969Q60.5312 260.12 58.2391 267.48Q57.3845 266.798 56.5383 266.108Q57.2814 263.907 58.0565 261.724Q55.8874 259.823 53.7865 257.87Q51.7352 258.903 49.6649 259.91Q48.9569 259.204 48.2573 258.493ZM55.2261 257.11Q56.9075 258.665 58.6334 260.187Q59.4019 258.229 60.1961 256.287Q60.9403 254.53 61.5004 253.47Q60.3962 254.327 59.1506 255.028Q57.1978 256.082 55.2261 257.11ZM63.9596 271.695Q68.0129 265.795 72.0663 259.895Q73.8419 261.085 75.6499 262.239Q76.8919 262.999 77.4467 263.569Q78.2364 264.358 78.5347 265.383Q78.9489 266.711 78.6763 268.26Q78.4183 269.814 77.5097 271.499Q76.7355 272.934 75.814 273.868Q74.8856 274.796 73.9755 275.237Q73.0595 275.67 72.2142 275.736Q71.3661 275.795 70.379 275.5Q69.3932 275.196 68.283 274.517Q66.1023 273.13 63.9596 271.695ZM66.4597 271.343Q67.7198 272.164 68.9928 272.969Q70.1835 273.699 71.0004 273.882Q71.8173 274.057 72.4638 273.88Q73.37 273.624 74.249 272.815Q75.122 272.001 75.9164 270.588Q77.017 268.63 77.0257 267.249Q77.0509 265.872 76.4451 265.042Q76.0134 264.443 74.735 263.66Q73.6092 262.948 72.4953 262.222Q69.4775 266.782 66.4597 271.343ZM81.758 281.645Q80.9516 281.282 80.1479 280.912Q82.5075 275.833 84.867 270.754Q84.0867 271.057 82.975 271.198Q81.8575 271.326 81.0441 271.259Q81.4257 270.5 81.8073 269.741Q83.314 269.713 84.6367 269.254Q85.9472 268.779 86.7039 268.106Q87.158 268.313 87.6132 268.517Q84.6856 275.081 81.758 281.645ZM92.7167 281.029Q93.5553 281.233 94.3942 281.429Q94.1758 282.488 94.3914 283.282Q94.6125 284.076 95.3989 284.769Q96.1934 285.455 97.3454 285.795Q98.3699 286.087 99.24 285.993Q100.107 285.893 100.633 285.451Q101.165 285.009 101.331 284.366Q101.499 283.713 101.255 283.13Q101.022 282.549 100.291 281.998Q99.8262 281.637 98.1704 280.669Q96.5347 279.676 95.955 279.051Q95.2107 278.244 95.0189 277.341Q94.8339 276.438 95.1515 275.505Q95.5006 274.478 96.3251 273.762Q97.141 273.039 98.2839 272.896Q99.4199 272.739 100.631 273.102Q101.969 273.485 102.86 274.261Q103.775 275.032 104.105 276.144Q104.447 277.255 104.19 278.489Q103.353 278.351 102.515 278.206Q102.729 276.858 102.178 275.994Q101.637 275.126 100.228 274.724Q98.7641 274.284 97.9065 274.676Q97.042 275.061 96.7689 275.907Q96.5317 276.641 96.866 277.271Q97.1966 277.898 99.0885 279.015Q101.007 280.098 101.677 280.681Q102.689 281.538 103.032 282.534Q103.384 283.53 103.113 284.65Q102.845 285.76 101.971 286.587Q101.086 287.408 99.7477 287.641Q98.4271 287.867 96.9567 287.452Q95.0971 286.898 94.0152 285.967Q92.948 285.025 92.6088 283.711Q92.2842 282.399 92.7167 281.029ZM108.326 289.9Q109.488 283.694 110.65 277.489Q108.559 277.076 106.469 276.621Q106.657 275.797 106.845 274.974Q111.797 275.981 116.739 276.749Q116.629 277.587 116.519 278.424Q114.426 278.128 112.329 277.79Q111.264 284.013 110.198 290.236Q109.262 290.072 108.326 289.9ZM115.234 290.99Q118.689 284.19 121.822 277.298Q122.749 277.372 123.674 277.438Q126.012 284.735 128.672 291.978Q127.583 291.953 126.489 291.918Q125.735 289.718 125.009 287.514Q122.054 287.328 119.179 287.077Q118.208 289.157 117.209 291.229Q116.222 291.114 115.234 290.99ZM119.841 285.591Q122.151 285.788 124.517 285.943Q123.911 283.922 123.329 281.898Q122.816 280.05 122.595 278.869Q122.236 280.222 121.66 281.537Q120.758 283.567 119.841 285.591ZM133.828 291.968Q133.684 285.656 133.539 279.344Q131.432 279.372 129.307 279.36Q129.32 278.516 129.333 277.671Q134.338 277.633 139.235 277.373Q139.299 278.216 139.362 279.058Q137.301 279.194 135.219 279.293Q135.459 285.602 135.698 291.911Q134.765 291.943 133.828 291.968ZM142.235 291.489Q141.584 284.36 140.933 277.232Q145.408 276.73 149.928 276.03Q150.075 276.862 150.222 277.694Q146.468 278.29 142.744 278.75Q142.976 280.93 143.208 283.11Q146.834 282.666 150.487 282.099Q150.629 282.926 150.771 283.754Q147.065 284.33 143.386 284.781Q143.644 287.203 143.902 289.626Q148.157 289.097 152.448 288.407Q152.597 289.239 152.746 290.07Q147.462 290.899 142.235 291.489ZM168.963 280.695Q169.903 280.622 170.845 280.539Q171.085 282.933 170.04 284.595Q168.962 286.246 166.829 286.921Q164.619 287.574 162.985 287.05Q161.373 286.503 160.223 284.953Q159.095 283.393 158.604 281.401Q158.07 279.23 158.411 277.428Q158.731 275.627 159.846 274.434Q160.938 273.228 162.524 272.756Q164.319 272.189 165.891 272.818Q167.487 273.422 168.646 275.114Q167.913 275.607 167.175 276.095Q166.243 274.761 165.209 274.353Q164.184 273.936 162.965 274.316Q161.563 274.734 160.834 275.766Q160.09 276.791 160.046 278.184Q159.992 279.577 160.353 280.946Q160.818 282.712 161.655 283.899Q162.503 285.081 163.734 285.439Q164.975 285.783 166.208 285.415Q167.706 284.948 168.457 283.74Q169.189 282.527 168.963 280.695ZM174.649 283.967Q172.078 277.286 169.506 270.606Q170.289 270.301 171.07 269.989Q172.171 272.715 173.272 275.44Q176.494 274.078 179.613 272.638Q178.339 269.989 177.064 267.341Q177.808 266.979 178.549 266.611Q181.76 273.008 184.971 279.406Q184.123 279.827 183.273 280.241Q181.809 277.2 180.346 274.16Q177.177 275.623 173.904 277.007Q175.168 280.135 176.431 283.264Q175.541 283.619 174.649 283.967ZM186.38 278.686Q185.354 271.117 183.99 263.662Q184.759 263.209 185.523 262.748Q191.575 267.402 197.908 271.786Q197.011 272.393 196.108 272.992Q194.23 271.628 192.376 270.24Q189.917 271.753 187.419 273.198Q187.804 275.465 188.16 277.741Q187.272 278.218 186.38 278.686ZM187.117 271.597Q189.11 270.437 191.078 269.234Q189.434 267.922 187.81 266.592Q186.346 265.366 185.495 264.52Q185.988 265.829 186.288 267.228Q186.717 269.407 187.117 271.597ZM199.11 270.95Q194.986 265.1 190.862 259.249Q191.875 258.525 192.876 257.788Q197.146 260.911 201.529 263.916Q202.769 264.736 203.375 265.151Q203.069 264.394 202.501 262.903Q200.547 258.049 198.449 253.282Q199.271 252.553 200.082 251.815Q204.932 257.08 209.782 262.345Q209.108 262.96 208.427 263.57Q204.447 259.092 200.467 254.614Q202.966 260.382 205.255 266.278Q204.589 266.819 203.918 267.355Q198.583 263.783 193.413 260.038Q197.009 264.958 200.604 269.878Q199.86 270.417 199.11 270.95ZM211.994 260.245Q206.989 255.127 201.985 250.009Q203.611 248.376 205.214 246.677Q206.045 245.759 206.579 245.361Q207.311 244.786 208.089 244.634Q208.866 244.475 209.794 244.749Q210.725 245.015 211.549 245.689Q212.962 246.846 213.248 248.484Q213.502 250.139 211.58 252.306Q210.381 253.592 209.184 254.829Q211.257 256.872 213.33 258.914Q212.666 259.582 211.994 260.245ZM207.98 253.644Q209.165 252.419 210.352 251.145Q211.501 249.864 211.459 248.873Q211.405 247.887 210.462 247.082Q209.778 246.5 209.028 246.392Q208.28 246.279 207.693 246.638Q207.317 246.87 206.552 247.718Q205.443 248.907 204.335 250.052Q206.158 251.848 207.98 253.644ZM221.135 249.982Q215.469 245.607 209.803 241.233Q210.294 240.591 210.777 239.945Q216.528 244.207 222.279 248.469Q221.711 249.228 221.135 249.982ZM218.168 242.244Q215.244 240.205 214.518 237.691Q213.715 235.233 215.046 233.075Q215.89 231.619 217.373 230.896Q218.849 230.137 220.687 230.268Q222.532 230.37 224.456 231.327Q226.406 232.296 227.566 233.815Q228.703 235.361 228.734 237.182Q228.723 239.022 227.776 240.652Q226.725 242.376 225.061 243.174Q223.389 243.934 221.547 243.641Q219.714 243.322 218.168 242.244ZM219.204 240.777Q221.357 242.213 223.328 241.924Q225.305 241.59 226.377 239.832Q227.441 237.995 226.781 236.081Q226.08 234.202 223.632 232.919Q222.084 232.108 220.684 231.966Q219.289 231.809 218.182 232.334Q217.071 232.84 216.452 233.901Q215.555 235.375 216.056 237.164Q216.515 238.983 219.204 240.777ZM231.89 232.338Q225.397 229.323 218.905 226.309Q219.249 225.557 219.583 224.804Q226.03 223.914 232.501 222.565Q227.18 220.755 221.86 218.944Q222.103 218.217 222.339 217.486Q229.163 219.649 235.986 221.812Q235.684 222.747 235.373 223.674Q228.85 225.137 222.347 226.137Q227.497 228.401 232.646 230.665Q232.272 231.502 231.89 232.338ZM232.299 218.105Q232.451 217.269 232.594 216.434Q233.664 216.59 234.441 216.333Q235.218 216.068 235.855 215.25Q236.483 214.424 236.74 213.247Q236.956 212.191 236.795 211.324Q236.624 210.463 236.139 209.977Q235.652 209.496 234.997 209.386Q234.332 209.275 233.774 209.555Q233.216 209.83 232.728 210.598Q232.406 211.086 231.567 212.8Q230.7 214.444 230.12 215.041Q229.366 215.805 228.48 216.036Q227.594 216.259 226.643 215.994Q225.599 215.704 224.83 214.945Q224.054 214.199 223.825 213.122Q223.579 212.058 223.841 210.894Q224.112 209.584 224.806 208.677Q225.487 207.758 226.559 207.371Q227.629 206.97 228.881 207.116Q228.826 207.915 228.761 208.716Q227.402 208.61 226.59 209.207Q225.773 209.792 225.488 211.182Q225.168 212.598 225.624 213.393Q226.071 214.199 226.932 214.419Q227.68 214.61 228.283 214.255Q228.882 213.903 229.85 212.007Q230.776 210.04 231.3 209.336Q232.057 208.302 233.015 207.896Q233.971 207.478 235.112 207.644Q236.242 207.809 237.148 208.586Q238.046 209.378 238.397 210.674Q238.726 211.987 238.421 213.511Q237.999 215.412 237.143 216.544Q236.27 217.659 234.981 218.07Q233.69 218.462 232.299 218.105Z"/>
</svg>
