<?xml version="1.0" encoding="utf-8" ?>
<svg xmlns="http://www.w3.org/2000/svg" xmlns:xlink="http://www.w3.org/1999/xlink" width="259" height="313">
	<defs/>
	<path fill="none" stroke="black" stroke-width="0.25" stroke-miterlimit="10" transform="matrix(1.00032 0 0 1.00032 0.00863647 0)" d="M248.2 165.5C246.6 152.6 242.8 140.2 237.1 128.5C235.4 125 233.4 121.4 231.3 118C215.6 92.8 191.8 75 164.3 67L164.3 51.9C164.3 44.3 159.3 37.8 152.5 35.4C152.6 34.1 152.7 33.1 152.7 32.6C152.7 20.7 143 11 131.1 11C119.2 11 109.5 20.7 109.5 32.6C109.5 33.5 109.5 34.3 109.6 35.2C102.4 37.3 97.1 44 97.1 51.9L97.1 67C69.8 75 46 92.7 30.3 117.6C28.2 120.9 26.2 124.5 24.4 128.1C18.6 139.8 14.8 152.3 13.2 165.2C12.6 170 12.3 174.8 12.2 179.4C12.2 179.8 12.2 180.2 12.2 180.6C12.2 202 18 223 28.9 241.3C33.3 248.6 38.4 255.3 44.1 261.4C66.4 285.3 98 299 130.7 299C163.5 299 195.2 285.2 217.5 261.1C222.8 255.4 227.5 249.2 231.5 242.8C243.1 224.1 249.2 202.6 249.2 180.5L249.2 180C249.1 175.3 248.8 170.3 248.2 165.5ZM130.7 19.9C135.4 19.9 139.1 23.7 139.1 28.3C139.1 32.9 135.3 36.7 130.7 36.7C126 36.7 122.3 32.9 122.3 28.3C122.3 23.7 126 19.9 130.7 19.9ZM130.4 273.1C79.4 273.1 38 231.7 38 180.7C38 129.7 79.4 88.3 130.4 88.3C181.4 88.3 222.8 129.7 222.8 180.7C222.8 231.7 181.4 273.1 130.4 273.1Z"/>
	<defs/>
	<text transform="matrix(1.00032 0 0 1.00032 0.00863647 0)" font-size="12" font-family="Segoe UI" x="" y="">
			
	</text>
	<defs/>
	<text transform="matrix(1.00032 0 0 1.00032 0.00863647 0)" font-size="12" font-family="Segoe UI" x="" y="">
			
	</text>
	<defs/>
	<text transform="matrix(1.00032 0 0 1.00032 0.00863647 0)" font-size="12" font-family="Segoe UI" x="" y="">
			
	</text>
	<defs/>
	<text transform="matrix(1.00032 0 0 1.00032 0.00863647 0)" font-size="12" font-family="Segoe UI" x="" y="">
			
	</text>
	<path d="M43.1081 134.266Q43.0621 134.856 43.0415 135.341Q43.0236 135.824 42.9044 136.556Q42.8041 137.172 42.6152 137.857Q42.4319 138.541 42.0751 139.296Q41.4216 140.724 40.4976 141.72Q39.5855 142.73 38.3455 143.254Q37.1333 143.785 35.601 143.774Q34.0628 143.786 32.2935 143.108Q30.6155 142.466 29.5 141.423Q28.39 140.375 27.8781 139.026Q27.3977 137.704 27.5195 136.142Q27.6659 134.573 28.4282 132.907Q29.0043 131.693 29.8471 130.615Q30.7021 129.547 32.0874 128.429Q33.1015 128.966 34.1155 129.503Q34.0772 129.576 34.0389 129.648Q32.5247 130.38 31.5147 131.363Q30.5151 132.36 29.8628 133.736Q29.3436 134.867 29.2636 135.919Q29.1949 136.967 29.5838 137.971Q29.9721 138.939 30.8489 139.746Q31.7304 140.545 33.0875 141.096Q34.5079 141.673 35.6926 141.692Q36.8755 141.719 37.7735 141.371Q38.7109 141.017 39.3985 140.31Q40.092 139.61 40.5204 138.679Q41.1263 137.402 41.2435 136.078Q41.3807 134.747 41.0396 133.331Q41.0727 133.268 41.1059 133.205Q42.107 133.735 43.1081 134.266ZM40.8017 115.643Q42.1799 115.41 43.6322 115.827Q45.0784 116.257 46.5157 117.335Q47.953 118.414 48.7884 119.67Q49.6341 120.916 49.877 122.192Q50.1511 123.505 49.8554 124.797Q49.58 126.088 48.7198 127.391Q47.8864 128.698 46.7869 129.512Q45.6955 130.344 44.4073 130.632Q43.1179 130.937 41.6506 130.676Q40.1789 130.428 38.599 129.551Q37.0447 128.689 36.065 127.549Q35.0942 126.398 34.7287 125.013Q34.4002 123.679 34.7223 122.155Q35.0688 120.628 36.0121 119.149Q36.9983 117.654 38.2239 116.764Q39.4578 115.894 40.8017 115.643ZM45.237 119.076Q42.9376 117.423 40.8686 117.682Q38.7927 117.982 37.4193 120.048Q36.0574 122.201 36.6233 124.231Q37.2266 126.234 39.6746 127.658Q42.1479 129.097 44.1422 128.706Q46.1322 128.357 47.3242 126.474Q48.5362 124.65 48.0295 122.71Q47.5603 120.746 45.237 119.076ZM60.308 112.337Q57.1756 115.733 54.2088 119.268Q48.5319 114.725 42.855 110.183Q43.5542 109.318 44.2623 108.459Q49.1884 112.563 54.1146 116.666Q56.5415 113.859 59.0724 111.143Q59.6902 111.74 60.308 112.337ZM66.2584 99.078Q67.2415 100.318 67.6925 101.463Q68.1507 102.604 68.0177 103.717Q67.9036 104.774 67.3489 105.686Q66.8058 106.602 65.7993 107.486Q64.7829 108.404 63.789 108.831Q62.7968 109.272 61.8028 109.253Q60.6652 109.244 59.6146 108.69Q58.5593 108.142 57.3932 106.974Q54.3191 103.895 51.245 100.817Q52.0389 100.032 52.8405 99.2547Q55.8868 102.429 58.9332 105.603Q59.7515 106.455 60.3464 106.832Q60.94 107.21 61.6093 107.342Q62.3665 107.501 63.1388 107.223Q63.9114 106.952 64.6952 106.246Q65.4936 105.543 65.8507 104.814Q66.2149 104.087 66.1451 103.303Q66.0905 102.623 65.7609 101.964Q65.4334 101.304 64.7556 100.483Q61.9386 97.0717 59.1217 93.6607Q59.9834 92.9563 60.8515 92.2608Q63.5549 95.6694 66.2584 99.078ZM83.8033 94.4313Q82.9518 94.9019 82.1038 95.3816Q78.9922 89.9443 75.8806 84.5071Q76.0878 89.3265 76.4664 94.097Q75.9524 94.4225 75.4401 94.7513Q71.3045 92.3747 67.0629 90.1235Q70.6747 95.2422 74.2866 100.361Q73.5527 100.884 72.823 101.414Q68.5226 95.5515 64.2223 89.6891Q65.4469 88.8034 66.6818 87.9353Q70.7551 90.0628 74.7469 92.2958Q74.3614 87.7684 74.1267 83.1968Q75.4762 82.4231 76.8337 81.6695Q80.3185 88.0504 83.8033 94.4313ZM95.8366 84.1124Q96.2057 85.1316 96.0853 86.059Q95.9717 86.9858 95.4879 87.7415Q94.9293 88.6473 94.1 89.2697Q93.3064 89.8884 91.9288 90.4702Q89.5941 91.5139 87.2764 92.6239Q84.05 86.1085 80.8236 79.5931Q83.0461 78.5228 85.2827 77.5055Q86.9441 76.7876 87.8168 76.55Q88.689 76.3203 89.5963 76.3575Q90.6205 76.4085 91.2482 76.8738Q91.8715 77.3425 92.1952 78.2015Q92.5602 79.1702 92.2637 80.0612Q91.9752 80.9526 91.2294 81.7195Q91.2439 81.7557 91.2584 81.792Q92.8881 81.4795 94.1124 82.0771Q95.3213 82.6891 95.8366 84.1124ZM90.1559 79.267Q89.9596 78.7776 89.6449 78.5147Q89.3291 78.2526 88.8427 78.2082Q88.2695 78.1595 87.571 78.3834Q86.8727 78.6125 85.8794 79.0462Q84.6987 79.577 83.5217 80.1227Q84.4161 82.0223 85.3105 83.9219Q86.5389 83.353 87.7715 82.8011Q88.6695 82.4108 89.1654 82.0987Q89.6628 81.7894 90.0079 81.3296Q90.356 80.8711 90.3732 80.3638Q90.3922 79.8562 90.1559 79.267ZM93.8527 84.9379Q93.5361 84.1179 93.0831 83.7385Q92.6275 83.3608 91.7962 83.3019Q91.247 83.2602 90.5656 83.4606Q89.8842 83.6662 88.9512 84.0654Q87.4752 84.7191 86.0052 85.3974Q87.1576 87.8447 88.3099 90.2921Q89.4839 89.7486 90.662 89.2218Q91.8348 88.7154 92.5349 88.2789Q93.2383 87.8482 93.5902 87.3279Q93.9846 86.7623 94.0563 86.21Q94.1306 85.6576 93.8527 84.9379ZM104.926 85.9217Q102.162 86.7187 99.4012 87.604Q99.1641 86.9007 98.9269 86.1975Q99.8556 85.8894 100.785 85.5913Q99.0449 80.073 97.3048 74.5548Q96.2666 74.8878 95.2294 75.2318Q94.9922 74.5285 94.7551 73.8252Q97.9274 72.8079 101.105 71.8918Q101.3 72.6079 101.495 73.324Q100.455 73.6128 99.4149 73.9124Q101.045 79.4643 102.674 85.0162Q103.605 84.748 104.536 84.4895Q104.731 85.2056 104.926 85.9217ZM119.444 83.1305Q118.409 83.2545 117.371 83.3902Q116.363 81.4852 115.324 79.5903Q112.004 80.1499 108.855 80.7862Q108.588 82.9215 108.349 85.0556Q107.404 85.2815 106.459 85.5174Q107.4 77.8134 108.717 70.1014Q110.146 69.8272 111.65 69.5594Q115.754 76.2747 119.444 83.1305ZM114.438 78.0475Q112.466 74.755 110.398 71.4988Q109.7 75.2676 109.096 79.0358Q111.695 78.5186 114.438 78.0475ZM139.715 81.8782Q139.153 82.0621 138.699 82.2288Q138.248 82.3976 137.53 82.5684Q136.926 82.7125 136.227 82.8008Q135.532 82.8943 134.707 82.8549Q133.16 82.8002 131.908 82.3295Q130.65 81.8751 129.71 80.9309Q128.767 80.015 128.207 78.5953Q127.631 77.1788 127.578 75.285Q127.528 73.4888 128.038 72.0594Q128.562 70.6324 129.598 69.6424Q130.617 68.6915 132.079 68.2045Q133.562 67.7372 135.372 67.8013Q136.702 67.8671 138.013 68.2313Q139.322 68.6113 140.884 69.4624Q140.777 70.6048 140.669 71.7472Q140.588 71.7395 140.506 71.732Q139.251 70.614 137.962 70.0582Q136.666 69.518 135.158 69.444Q133.929 69.399 132.941 69.7292Q131.962 70.0683 131.197 70.8128Q130.466 71.543 130.066 72.662Q129.673 73.7825 129.685 75.2473Q129.697 76.7805 130.127 77.8815Q130.547 78.9844 131.199 79.6802Q131.872 80.4099 132.773 80.7732Q133.671 81.1447 134.682 81.1824Q136.078 81.2516 137.337 80.8512Q138.612 80.4675 139.787 79.6093Q139.857 79.6159 139.928 79.6225Q139.822 80.7504 139.715 81.8782ZM153.343 85.2201Q152.412 85.0002 151.483 84.79Q152.25 81.3142 153.018 77.8384Q149.259 77.0803 145.315 76.4376Q144.81 79.9612 144.305 83.4847Q143.33 83.3499 142.357 83.2254Q143.243 76.0091 144.129 68.7928Q145.248 68.9359 146.369 69.0909Q145.964 71.9136 145.559 74.7363Q149.568 75.3895 153.389 76.1601Q154.004 73.3757 154.619 70.5912Q155.687 70.8328 156.757 71.0855Q155.05 78.1528 153.343 85.2201ZM168.544 90.2446Q167.401 89.7679 166.241 89.3016Q164.91 85.7036 163.432 82.1212Q162.046 81.6647 160.657 81.2294Q159.812 83.9936 158.966 86.7578Q158.036 86.4782 157.105 86.2086Q159.093 79.2151 161.08 72.2216Q163.333 72.8875 165.583 73.6044Q167.038 74.0959 167.949 74.5966Q168.856 75.1058 169.473 75.8028Q170.157 76.5949 170.364 77.4865Q170.564 78.3779 170.138 79.4589Q169.56 80.9213 168.355 81.5885Q167.165 82.2693 165.562 82.2525Q167.187 86.2578 168.544 90.2446ZM167.95 78.7681Q168.167 78.1821 168.1 77.6419Q168.03 77.1017 167.596 76.5912Q167.237 76.1625 166.65 75.8373Q166.061 75.5157 165.211 75.23Q163.973 74.8273 162.734 74.4403Q161.931 77.0644 161.129 79.6885Q162.139 80.0033 163.15 80.3291Q164.098 80.6454 164.857 80.735Q165.617 80.8309 166.261 80.5943Q166.858 80.3746 167.26 79.9553Q167.665 79.5373 167.95 78.7681ZM174.854 93.193Q172.283 91.925 169.688 90.739Q169.987 90.0596 170.286 89.3801Q171.161 89.7702 172.035 90.1694Q174.466 84.9186 176.896 79.6678Q175.921 79.222 174.943 78.7864Q175.242 78.1069 175.54 77.4275Q178.521 78.7901 181.475 80.2469Q181.138 80.9077 180.8 81.5685Q179.836 81.0815 178.869 80.6047Q176.335 85.8065 173.801 91.0083Q174.667 91.4353 175.53 91.8715Q175.192 92.5323 174.854 93.193ZM189.169 97.0142Q188.679 97.708 187.869 98.1532Q187.064 98.6037 186.145 98.6694Q185.145 98.7468 184.085 98.4641Q183.008 98.1841 181.755 97.3932Q180.4 96.5672 179.458 95.6718Q178.503 94.7878 177.633 93.6457Q178.213 92.583 178.794 91.5202Q178.856 91.5543 178.918 91.5885Q179.472 92.9461 180.517 94.1187Q181.541 95.3045 182.653 95.985Q184.215 96.9749 185.446 96.9753Q186.669 96.9827 187.298 96.0525Q187.84 95.2517 187.685 94.5942Q187.525 93.9363 186.798 93.1564Q186.239 92.5649 185.527 91.9652Q184.81 91.3718 184.028 90.6691Q182.432 89.2588 182.039 87.8973Q181.626 86.5357 182.391 85.1394Q183.267 83.5375 185.374 83.3762Q187.502 83.2596 189.866 84.6926Q191.378 85.6514 192.46 86.7099Q193.507 87.7683 194.187 88.76Q193.533 89.697 192.879 90.6339Q192.817 90.5904 192.754 90.5469Q192.39 89.4419 191.391 88.21Q190.35 86.9754 188.973 86.104Q187.452 85.1734 186.197 85.1772Q184.949 85.1971 184.443 86.0777Q183.99 86.8652 184.181 87.5733Q184.367 88.2813 185.345 89.1823Q185.861 89.6567 186.835 90.4915Q187.798 91.3376 188.423 91.99Q189.63 93.3154 189.858 94.5278Q190.071 95.7382 189.169 97.0142ZM206 99.5751Q203.819 97.5858 201.589 95.657Q197.46 100.562 193.331 105.466Q192.586 104.845 191.835 104.232Q195.866 99.2469 199.898 94.2617Q197.586 92.4428 195.232 90.6891Q195.736 89.9932 196.24 89.2973Q201.84 93.6293 207.175 98.3208Q206.587 98.948 206 99.5751ZM202.246 113.982Q200.258 111.892 198.208 109.859Q198.723 109.324 199.238 108.789Q199.935 109.467 200.625 110.152Q204.719 106.063 208.813 101.974Q208.043 101.21 207.265 100.454Q207.78 99.9191 208.295 99.3845Q210.648 101.718 212.929 104.117Q212.384 104.621 211.838 105.124Q211.1 104.332 210.353 103.547Q206.179 107.554 202.005 111.561Q202.674 112.265 203.336 112.975Q202.791 113.478 202.246 113.982ZM211.424 125.552Q210.843 124.705 210.253 123.862Q211.483 122.099 212.693 120.315Q210.718 117.7 208.657 115.145Q206.631 115.884 204.619 116.648Q203.974 115.903 203.321 115.165Q210.614 112.473 218.1 110.127Q219.019 111.29 219.923 112.464Q215.82 119.147 211.424 125.552ZM213.66 118.827Q215.692 115.588 217.653 112.285Q213.969 113.382 210.329 114.561Q212.023 116.674 213.66 118.827ZM218.164 137.108Q217.625 136.038 217.073 134.973Q221.048 128.702 224.675 122.084Q219.147 125.511 213.619 128.938Q213.133 128.162 212.64 127.39Q218.747 123.445 224.855 119.501Q225.79 120.973 226.7 122.457Q223.35 128.507 219.711 134.266Q224.982 131.531 230.252 128.796Q230.726 129.72 231.191 130.647Q224.677 133.877 218.164 137.108Z"/>
	<path d="M45.1602 250.493Q44.6431 250.226 44.2132 250.017Q43.7838 249.806 43.1745 249.394Q42.6638 249.038 42.1353 248.565Q41.6097 248.088 41.109 247.415Q40.1817 246.139 39.8031 244.833Q39.4431 243.527 39.6963 242.206Q39.9612 240.923 40.8808 239.713Q41.8106 238.513 43.407 237.493Q44.9211 236.525 46.3626 236.149Q47.7988 235.761 49.082 235.933Q50.3239 236.082 51.3756 236.733Q52.4312 237.364 53.237 238.473Q53.8382 239.278 54.2224 240.247Q54.6201 241.216 54.8393 242.629Q53.9487 243.353 53.0581 244.076Q53.0168 244.026 52.9755 243.975Q53.0924 242.511 52.8116 241.408Q52.547 240.307 51.8436 239.364Q51.2774 238.587 50.5394 238.167Q49.8038 237.74 48.839 237.666Q47.8951 237.582 46.777 237.923Q45.6556 238.258 44.4366 239.07Q43.1608 239.921 42.4649 240.865Q41.7753 241.816 41.5595 242.73Q41.3418 243.685 41.5698 244.612Q41.8081 245.541 42.3956 246.346Q43.2171 247.446 44.3261 248.107Q45.4403 248.752 46.8351 248.961Q46.8769 249.013 46.9186 249.064Q46.0394 249.778 45.1602 250.493ZM62.4817 251.863Q62.3834 253.114 61.7279 254.439Q61.0829 255.772 59.8651 257.093Q58.6472 258.414 57.3422 259.142Q56.0293 259.86 54.7586 259.962Q53.4303 260.053 52.2022 259.546Q50.9764 259.022 49.8695 257.882Q48.8073 256.756 48.3268 255.482Q47.866 254.208 48.0155 252.914Q48.1814 251.628 48.9519 250.365Q49.7322 249.11 51.1139 247.946Q52.4732 246.801 53.8263 246.215Q55.1729 245.619 56.4555 245.565Q57.6731 245.5 58.7944 245.989Q59.9181 246.462 60.814 247.411Q61.76 248.386 62.1636 249.517Q62.5852 250.648 62.4817 251.863ZM58.4947 255.806Q60.4524 253.76 60.6946 251.854Q60.972 249.963 59.6133 248.572Q58.274 247.143 56.3791 247.343Q54.4707 247.508 52.3396 249.373Q50.1865 251.258 49.8794 253.201Q49.609 255.163 51.0829 256.734Q52.5903 258.278 54.5614 258.094Q56.5167 257.874 58.4947 255.806ZM64.4324 270.243Q60.7709 267.44 57.2297 264.486Q62.0043 259.003 66.7788 253.52Q67.4148 254.069 68.0559 254.612Q63.9322 259.521 59.8085 264.43Q62.592 266.69 65.4482 268.856Q64.9403 269.55 64.4324 270.243ZM78.141 272.164Q77.3605 273.54 76.4865 274.397Q75.6067 275.249 74.5383 275.532Q73.5163 275.791 72.4768 275.566Q71.4361 275.329 70.2977 274.615Q69.1459 273.873 68.4961 273.011Q67.8566 272.145 67.6848 271.176Q67.4998 270.073 67.8728 268.951Q68.2522 267.832 69.2066 266.485Q71.7226 262.936 74.2386 259.387Q74.9266 259.87 75.6186 260.347Q73.1377 263.98 70.6567 267.613Q69.9904 268.589 69.7335 269.241Q69.4783 269.894 69.474 270.563Q69.4699 271.325 69.8962 271.994Q70.3285 272.662 71.1883 273.214Q72.0628 273.764 72.8468 273.876Q73.6294 273.98 74.3317 273.651Q74.9364 273.363 75.4372 272.826Q75.9363 272.287 76.4775 271.371Q78.7265 267.561 80.9756 263.752Q81.7031 264.177 82.4338 264.596Q80.2874 268.38 78.141 272.164ZM90.2872 284.352Q89.3919 284.002 88.4983 283.644Q90.8512 277.838 93.2041 272.032Q89.8768 275.265 86.4177 278.406Q85.9098 278.177 85.4028 277.945Q85.4935 273.277 85.7401 268.646Q82.9203 274.24 80.1005 279.834Q79.2984 279.426 78.4988 279.011Q81.8752 272.572 85.2516 266.133Q86.2679 266.658 87.2901 267.172Q87.0866 271.57 87.0194 275.999Q90.2453 273 93.3551 269.92Q94.4354 270.359 95.5187 270.784Q92.903 277.568 90.2872 284.352ZM105.555 284.44Q105.3 285.494 104.714 286.206Q104.121 286.914 103.321 287.266Q102.364 287.683 101.338 287.691Q100.325 287.694 98.8813 287.276Q96.4251 286.518 93.9745 285.701Q96.354 278.83 98.7335 271.96Q100.518 272.56 102.307 273.123Q103.631 273.516 104.258 273.817Q104.886 274.113 105.407 274.639Q105.989 275.227 106.136 275.945Q106.287 276.664 106.062 277.554Q105.808 278.558 105.157 279.142Q104.5 279.723 103.592 279.935Q103.582 279.973 103.572 280.01Q104.832 280.657 105.364 281.814Q105.91 282.969 105.555 284.44ZM104.224 277.334Q104.363 276.825 104.304 276.434Q104.248 276.044 103.976 275.736Q103.658 275.372 103.121 275.152Q102.586 274.929 101.768 274.684Q100.795 274.381 99.8223 274.068Q99.1691 276.064 98.5158 278.059Q99.6147 278.412 100.715 278.753Q101.514 278.992 102.014 279.041Q102.512 279.087 102.995 278.919Q103.476 278.749 103.766 278.347Q104.057 277.946 104.224 277.334ZM103.647 284.042Q103.869 283.192 103.755 282.627Q103.643 282.062 103.098 281.541Q102.736 281.189 102.157 280.951Q101.578 280.709 100.722 280.458Q99.3642 280.043 98.0085 279.609Q97.1669 282.18 96.3253 284.751Q97.5252 285.136 98.7264 285.507Q99.9193 285.861 100.717 285.953Q101.514 286.038 102.101 285.834Q102.722 285.606 103.088 285.198Q103.453 284.789 103.647 284.042ZM112.211 290.372Q109.382 289.855 106.583 289.27Q106.744 288.545 106.905 287.821Q107.821 288.02 108.738 288.212Q109.898 282.543 111.059 276.875Q110.236 276.703 109.413 276.524Q109.574 275.799 109.735 275.075Q112.179 275.585 114.649 276.037Q114.524 276.769 114.4 277.501Q113.548 277.352 112.727 277.202Q111.662 282.889 110.597 288.576Q111.511 288.744 112.46 288.909Q112.335 289.641 112.211 290.372ZM126.989 291.912Q125.975 291.867 124.957 291.814Q124.379 289.749 123.824 287.682Q120.799 287.431 117.752 287.093Q116.795 289.014 115.812 290.926Q114.82 290.785 113.826 290.635Q117.45 283.811 120.724 276.88Q121.852 276.995 122.978 277.097Q124.827 284.523 126.989 291.912ZM123.376 285.985Q122.474 282.332 121.647 278.673Q120.124 282.105 118.519 285.514Q120.955 285.778 123.376 285.985ZM147.063 289.879Q146.557 290.184 146.148 290.444Q145.737 290.703 145.058 291.012Q144.481 291.266 143.794 291.474Q143.106 291.679 142.264 291.761Q140.681 291.898 139.361 291.55Q138.055 291.187 137.068 290.291Q136.12 289.405 135.56 287.995Q135.015 286.582 134.954 284.689Q134.897 282.893 135.304 281.462Q135.7 280.03 136.498 279.017Q137.258 278.028 138.37 277.459Q139.474 276.878 140.867 276.757Q141.889 276.656 142.943 276.826Q144.004 276.984 145.362 277.525Q145.518 278.661 145.675 279.798Q145.608 279.807 145.541 279.816Q144.322 278.962 143.207 278.634Q142.104 278.293 140.908 278.411Q139.933 278.497 139.18 278.914Q138.423 279.325 137.856 280.115Q137.298 280.882 137.02 282.016Q136.736 283.15 136.808 284.614Q136.883 286.145 137.331 287.227Q137.787 288.307 138.458 288.962Q139.168 289.64 140.085 289.922Q141.01 290.196 142.011 290.107Q143.393 289.97 144.549 289.361Q145.697 288.74 146.62 287.653Q146.687 287.644 146.754 287.634Q146.909 288.757 147.063 289.879ZM160.89 288.182Q159.946 288.428 159.001 288.665Q158.149 285.209 157.297 281.752Q153.976 282.515 150.662 283.167Q151.294 286.67 151.926 290.173Q150.958 290.344 149.976 290.508Q148.809 283.332 147.641 276.155Q148.498 276.012 149.344 275.863Q149.85 278.67 150.356 281.476Q153.618 280.834 156.886 280.084Q156.203 277.315 155.521 274.546Q156.345 274.339 157.169 274.125Q159.03 281.153 160.89 288.182ZM175.96 283.041Q174.803 283.521 173.644 283.988Q170.37 282.148 167.177 280.222Q165.949 280.64 164.719 281.042Q165.6 283.795 166.482 286.548Q165.561 286.839 164.64 287.121Q162.541 280.16 160.441 273.199Q162.133 272.672 163.822 272.113Q164.913 271.734 165.697 271.634Q166.483 271.528 167.22 271.721Q168.045 271.938 168.684 272.501Q169.329 273.061 169.757 274.141Q170.335 275.603 170.044 276.855Q169.739 278.108 168.692 279.071Q172.272 281.112 175.96 283.041ZM168.1 274.927Q167.88 274.342 167.524 273.959Q167.169 273.575 166.625 273.422Q166.175 273.284 165.652 273.352Q165.13 273.418 164.473 273.645Q163.514 273.968 162.554 274.281Q163.391 276.894 164.228 279.508Q165.096 279.225 165.964 278.935Q166.779 278.655 167.331 278.29Q167.881 277.922 168.152 277.355Q168.395 276.828 168.393 276.261Q168.388 275.695 168.1 274.927ZM182.343 280.113Q179.742 281.365 177.117 282.546Q176.821 281.865 176.525 281.185Q177.386 280.806 178.245 280.419Q175.849 275.153 173.452 269.886Q172.683 270.233 171.911 270.572Q171.615 269.891 171.319 269.211Q173.605 268.182 175.87 267.092Q176.2 267.757 176.531 268.421Q175.771 268.795 175.008 269.162Q177.495 274.386 179.982 279.611Q180.834 279.201 181.682 278.784Q182.012 279.448 182.343 280.113ZM192.047 269.731Q192.517 270.439 192.653 271.344Q192.783 272.251 192.506 273.118Q192.189 274.062 191.496 274.912Q190.789 275.759 189.525 276.515Q188.16 277.308 186.92 277.671Q185.681 278.017 184.272 278.116Q183.708 277.045 183.143 275.974Q183.202 275.943 183.26 275.912Q184.64 276.215 186.122 275.969Q187.608 275.7 188.694 275.067Q190.219 274.15 190.706 273.057Q191.175 271.964 190.571 271.017Q190.051 270.202 189.424 270.056Q188.799 269.907 187.883 270.176Q187.188 270.37 186.429 270.677Q185.669 270.977 184.79 271.259Q183.005 271.79 181.768 271.334Q180.543 270.864 179.8 269.457Q178.947 267.841 179.595 266.169Q180.207 264.496 181.993 263.464Q183.136 262.777 184.238 262.439Q185.335 262.09 186.291 261.981Q186.918 262.937 187.544 263.892Q187.493 263.926 187.442 263.959Q186.437 263.773 185.175 264.024Q183.91 264.26 182.836 264.906Q181.65 265.597 181.241 266.569Q180.821 267.541 181.311 268.431Q181.749 269.226 182.375 269.471Q183.003 269.713 184.086 269.411Q184.655 269.24 185.674 268.864Q186.692 268.477 187.435 268.26Q188.941 267.817 190.058 268.129Q191.183 268.429 192.047 269.731ZM196.768 255.319Q195.004 256.794 193.205 258.227Q197.14 263.288 201.075 268.35Q200.308 268.941 199.535 269.526Q195.689 264.396 191.844 259.266Q189.988 260.624 188.1 261.936Q187.618 261.225 187.136 260.514Q191.484 257.383 195.649 254.014Q196.209 254.666 196.768 255.319ZM210.349 260.262Q208.26 262.25 206.124 264.177Q205.634 263.619 205.144 263.062Q205.849 262.437 206.548 261.807Q202.653 257.527 198.759 253.248Q198.136 253.81 197.507 254.367Q197.017 253.81 196.528 253.252Q198.378 251.582 200.187 249.862Q200.706 250.393 201.224 250.923Q200.617 251.511 200.009 252.09Q203.979 256.299 207.949 260.509Q208.631 259.86 209.312 259.201Q209.83 259.732 210.349 260.262ZM220.205 249.208Q219.571 250.019 218.929 250.824Q216.91 250.096 214.904 249.344Q212.935 251.653 210.893 253.908Q211.893 255.803 212.871 257.715Q212.183 258.427 211.489 259.132Q208.063 252.221 204.341 245.534Q205.085 244.697 205.818 243.852Q212.923 246.687 220.205 249.208ZM213.264 248.72Q209.773 247.318 206.326 245.844Q208.227 249.078 210.058 252.366Q211.685 250.56 213.264 248.72ZM227.662 238.218Q227.049 239.244 226.422 240.265Q219.138 239.564 212.015 238.431Q217.304 242.216 222.592 246.002Q222.067 246.73 221.534 247.454Q215.695 243.123 209.855 238.792Q210.615 237.753 211.358 236.705Q217.845 237.713 224.458 238.371Q219.397 235.266 214.337 232.161Q214.741 231.496 215.139 230.828Q221.401 234.523 227.662 238.218Z"/>
</svg>
