<?xml version="1.0" encoding="utf-8" ?>
<svg xmlns="http://www.w3.org/2000/svg" xmlns:xlink="http://www.w3.org/1999/xlink" width="564" height="681">
	<defs/>
	<path fill="none" stroke="black" stroke-width="0.25" stroke-miterlimit="10" transform="matrix(0.999853 0 0 0.999853 0.241394 0)" d="M485.2 357.1C482.4 335 476 313.6 466.1 293.5C463.1 287.4 459.7 281.3 456 275.5C429 232.2 388 201.6 340.7 187.7L340.7 161.7C340.7 148.5 332.2 137.4 320.3 133.4C320.5 131.2 320.6 129.5 320.6 128.6C320.6 108.1 304 91.5 283.5 91.5C263 91.5 246.4 108.1 246.4 128.6C246.4 130.1 246.5 131.5 246.6 133C234.2 136.7 225.2 148.1 225.2 161.7L225.2 187.7C178.2 201.5 137.3 231.9 110.4 274.8C106.8 280.6 103.4 286.6 100.3 292.9C90.3 313.1 83.8 334.5 81 356.7C79.9 365 79.4 373.2 79.3 381.1C79.3 381.8 79.3 382.5 79.3 383.2C79.3 420 89.2 456.1 108 487.6C115.5 500.1 124.3 511.7 134.1 522.2C172.5 563.3 226.8 586.9 283 586.9C339.5 586.9 393.9 563.2 432.3 521.8C441.4 512 449.5 501.4 456.3 490.3C476.2 458.2 486.7 421.2 486.7 383.2L486.7 382.3C486.8 373.9 486.2 365.4 485.2 357.1ZM283 106.8C291 106.8 297.5 113.3 297.5 121.3C297.5 129.3 291 135.8 283 135.8C275 135.8 268.5 129.3 268.5 121.3C268.5 113.3 275 106.8 283 106.8ZM282.6 542.2C194.8 542.2 123.7 471 123.7 383.3C123.7 295.6 194.9 224.4 282.6 224.4C370.3 224.4 441.5 295.6 441.5 383.3C441.5 471 370.3 542.2 282.6 542.2Z"/>
	<defs/>
	<text transform="matrix(0.999853 0 0 0.999853 0.241394 0)" font-size="12" font-family="Segoe UI" x="" y="">
			
	</text>
	<defs/>
	<text transform="matrix(0.999853 0 0 0.999853 0.241394 0)" font-size="12" font-family="Segoe UI" x="" y="">
			
	</text>
	<defs/>
	<text transform="matrix(0.999853 0 0 0.999853 0.241394 0)" font-size="12" font-family="Segoe UI" x="" y="">
			
	</text>
	<defs/>
	<text transform="matrix(0.999853 0 0 0.999853 0.241394 0)" font-size="12" font-family="Segoe UI" x="" y="">
			
	</text>
	<path d="M120.428 79.8619Q120.578 81.3485 119.428 82.4344Q118.298 83.5342 116.146 83.8315Q114.924 84.0223 113.853 83.9103Q112.774 83.811 112.043 83.6008Q111.849 82.589 111.655 81.5772Q111.703 81.568 111.751 81.5588Q112.751 82.0382 113.918 82.2245Q115.076 82.4254 116.077 82.2721Q117.315 82.0969 117.963 81.6178Q118.616 81.1432 118.515 80.3093Q118.438 79.6694 118.011 79.3873Q117.58 79.1071 116.439 79.0235Q116.014 78.9949 115.33 78.977Q114.644 78.964 114.073 78.9171Q112.476 78.8032 111.699 78.1951Q110.941 77.5875 110.739 76.5324Q110.613 75.8706 110.792 75.2301Q110.981 74.5889 111.531 74.012Q112.065 73.4516 112.972 73.0263Q113.882 72.6091 115.059 72.4331Q116.158 72.2808 117.31 72.3744Q118.455 72.4807 119.229 72.7403Q119.332 73.7163 119.435 74.6924Q119.382 74.698 119.329 74.7036Q118.505 74.2736 117.358 74.0511Q116.201 73.8417 115.129 73.992Q114.011 74.1604 113.302 74.6644Q112.598 75.1734 112.726 75.9242Q112.84 76.5884 113.354 76.8481Q113.855 77.1123 114.88 77.1685Q115.445 77.2026 116.139 77.2215Q116.831 77.2452 117.293 77.2831Q118.693 77.4073 119.506 78.0338Q120.309 78.6765 120.428 79.8619ZM132.022 82.5119Q131.13 82.502 130.241 82.5003Q130.24 81.929 130.238 81.3578Q129.469 82.0464 128.636 82.4397Q127.807 82.8401 126.825 82.8724Q124.907 82.9641 123.671 81.5359Q122.395 80.124 122.179 77.4668Q122.066 76.0847 122.404 74.9705Q122.749 73.8575 123.428 73.0466Q124.107 72.2603 125.053 71.817Q126.003 71.3823 127.04 71.3443Q127.977 71.3184 128.702 71.4847Q129.423 71.6558 130.214 72.0316Q130.207 69.6684 130.201 67.3051Q131.229 67.3071 132.26 67.3185Q132.141 74.9152 132.022 82.5119ZM130.234 79.8148Q130.226 76.6849 130.218 73.5551Q129.428 73.2281 128.802 73.1092Q128.173 72.9941 127.429 73.0129Q125.767 73.0737 124.895 74.1917Q124.038 75.3169 124.16 77.2858Q124.28 79.2254 125.015 80.1949Q125.735 81.1698 127.196 81.11Q127.972 81.0871 128.759 80.7233Q129.549 80.3659 130.234 79.8148ZM142.908 69.7798Q142.852 69.7735 142.797 69.7672Q142.461 69.6418 141.913 69.4905Q141.366 69.3419 140.943 69.3011Q139.599 69.1823 138.955 69.6552Q138.318 70.1319 138.22 71.4956Q138.207 71.6807 138.194 71.8658Q140.025 72.012 141.865 72.1905Q141.784 72.9577 141.703 73.7249Q139.921 73.5518 138.148 73.4094Q137.812 78.08 137.476 82.7505Q136.567 82.6894 135.66 82.637Q135.908 77.9609 136.156 73.2849Q135.486 73.2514 134.818 73.2222Q134.849 72.4514 134.88 71.6805Q135.559 71.7101 136.238 71.7441Q136.248 71.5637 136.257 71.3833Q136.361 69.4427 137.511 68.4677Q138.685 67.5051 140.789 67.6783Q141.5 67.7458 142.065 67.8616Q142.63 67.9804 143.096 68.1107Q143.002 68.9452 142.908 69.7798ZM150.987 81.4676Q150.682 82.9303 149.292 83.626Q147.906 84.3381 145.743 83.9688Q144.522 83.7825 143.543 83.3539Q142.561 82.9358 141.911 82.5129Q142.031 81.4897 142.151 80.4664Q142.202 80.4724 142.252 80.4783Q143.068 81.2378 144.11 81.7658Q145.146 82.3053 146.147 82.461Q147.391 82.6692 148.164 82.4098Q148.93 82.1543 149.086 81.329Q149.205 80.6957 148.888 80.2987Q148.555 79.9002 147.478 79.4737Q147.078 79.3178 146.428 79.0941Q145.778 78.8749 145.249 78.658Q143.777 78.0702 143.231 77.2573Q142.676 76.4475 142.802 75.3806Q142.881 74.7114 143.256 74.1563Q143.635 73.6025 144.323 73.2171Q144.993 72.843 145.977 72.7097Q146.967 72.5858 148.146 72.7736Q149.251 72.9615 150.34 73.4018Q151.361 73.8413 152 74.318Q151.804 75.2796 151.608 76.2413Q151.557 76.2309 151.507 76.2206Q150.873 75.5666 149.876 75.0142Q148.819 74.4623 147.742 74.2807Q146.623 74.1039 145.797 74.371Q144.979 74.6448 144.875 75.3994Q144.783 76.0669 145.191 76.4691Q145.585 76.8714 146.544 77.2341Q147.074 77.4371 147.735 77.6652Q148.395 77.8977 148.831 78.0745Q150.113 78.6123 150.677 79.4503Q151.23 80.3012 150.987 81.4676Z"/>
	<path d="M125.118 288.674Q125.033 290.165 123.762 291.045Q122.466 291.91 120.326 291.722Q119.109 291.597 118.125 291.196Q117.143 290.786 116.5 290.359Q116.635 289.338 116.77 288.316Q116.818 288.322 116.867 288.329Q117.642 289.087 118.65 289.595Q119.663 290.094 120.631 290.191Q121.827 290.299 122.532 289.965Q123.231 289.627 123.292 288.789Q123.339 288.147 123.007 287.789Q122.676 287.43 121.683 287.111Q121.316 286.989 120.722 286.815Q120.129 286.637 119.646 286.449Q118.31 285.912 117.825 285.11Q117.348 284.304 117.488 283.239Q117.576 282.571 117.913 282.015Q118.246 281.457 118.825 281.056Q119.38 280.66 120.179 280.48Q120.974 280.294 121.918 280.386Q122.799 280.463 123.681 280.774Q124.565 281.076 125.141 281.455Q125.082 282.435 125.022 283.415Q124.977 283.412 124.933 283.409Q124.321 282.851 123.426 282.429Q122.535 281.999 121.65 281.92Q120.727 281.83 120.048 282.146Q119.363 282.457 119.276 283.214Q119.199 283.883 119.556 284.268Q119.906 284.65 120.751 284.953Q121.22 285.117 121.804 285.288Q122.389 285.456 122.777 285.586Q123.962 285.969 124.571 286.723Q125.186 287.484 125.118 288.674ZM136.156 291.906Q135.254 291.939 134.355 291.965Q134.341 291.393 134.327 290.822Q133.575 291.522 132.745 291.915Q131.913 292.302 130.936 292.301Q129.031 292.276 127.952 290.744Q126.899 289.201 127.008 286.537Q127.065 285.151 127.471 284.083Q127.87 283.012 128.501 282.27Q129.113 281.543 129.903 281.167Q130.685 280.786 131.513 280.789Q132.265 280.786 132.85 280.961Q133.439 281.132 134.096 281.499Q134.037 279.137 133.979 276.774Q134.759 276.752 135.541 276.723Q135.849 284.314 136.156 291.906ZM134.289 289.28Q134.211 286.151 134.134 283.022Q133.459 282.705 132.932 282.586Q132.408 282.465 131.791 282.468Q130.419 282.463 129.633 283.527Q128.829 284.584 128.78 286.556Q128.732 288.499 129.342 289.523Q129.961 290.544 131.365 290.555Q132.113 290.553 132.877 290.2Q133.638 289.841 134.289 289.28ZM143.959 277.816Q143.915 277.822 143.872 277.827Q143.592 277.772 143.148 277.731Q142.705 277.688 142.377 277.724Q141.333 277.831 140.912 278.396Q140.487 278.959 140.607 280.321Q140.623 280.506 140.639 280.69Q142.139 280.548 143.643 280.382Q143.733 281.148 143.823 281.915Q142.323 282.08 140.828 282.223Q141.241 286.887 141.654 291.551Q140.739 291.629 139.825 291.699Q139.487 287.028 139.148 282.358Q138.582 282.397 138.018 282.434Q137.97 281.664 137.922 280.894Q138.479 280.858 139.037 280.819Q139.023 280.639 139.01 280.459Q138.87 278.52 139.638 277.418Q140.39 276.311 141.975 276.156Q142.511 276.098 142.947 276.108Q143.385 276.115 143.753 276.149Q143.856 276.983 143.959 277.816Z"/>
</svg>
