<?xml version="1.0" encoding="utf-8" ?>
<svg xmlns="http://www.w3.org/2000/svg" xmlns:xlink="http://www.w3.org/1999/xlink" width="259" height="313">
	<defs/>
	<path fill="none" stroke="black" stroke-width="0.25" stroke-miterlimit="10" transform="matrix(1.00032 0 0 1.00032 0.00863647 0)" d="M248.2 165.5C246.6 152.6 242.8 140.2 237.1 128.5C235.4 125 233.4 121.4 231.3 118C215.6 92.8 191.8 75 164.3 67L164.3 51.9C164.3 44.3 159.3 37.8 152.5 35.4C152.6 34.1 152.7 33.1 152.7 32.6C152.7 20.7 143 11 131.1 11C119.2 11 109.5 20.7 109.5 32.6C109.5 33.5 109.5 34.3 109.6 35.2C102.4 37.3 97.1 44 97.1 51.9L97.1 67C69.8 75 46 92.7 30.3 117.6C28.2 120.9 26.2 124.5 24.4 128.1C18.6 139.8 14.8 152.3 13.2 165.2C12.6 170 12.3 174.8 12.2 179.4C12.2 179.8 12.2 180.2 12.2 180.6C12.2 202 18 223 28.9 241.3C33.3 248.6 38.4 255.3 44.1 261.4C66.4 285.3 98 299 130.7 299C163.5 299 195.2 285.2 217.5 261.1C222.8 255.4 227.5 249.2 231.5 242.8C243.1 224.1 249.2 202.6 249.2 180.5L249.2 180C249.1 175.3 248.8 170.3 248.2 165.5ZM130.7 19.9C135.4 19.9 139.1 23.7 139.1 28.3C139.1 32.9 135.3 36.7 130.7 36.7C126 36.7 122.3 32.9 122.3 28.3C122.3 23.7 126 19.9 130.7 19.9ZM130.4 273.1C79.4 273.1 38 231.7 38 180.7C38 129.7 79.4 88.3 130.4 88.3C181.4 88.3 222.8 129.7 222.8 180.7C222.8 231.7 181.4 273.1 130.4 273.1Z"/>
	<defs/>
	<text transform="matrix(1.00032 0 0 1.00032 0.00863647 0)" font-size="12" font-family="Segoe UI" x="" y="">
			
	</text>
	<defs/>
	<text transform="matrix(1.00032 0 0 1.00032 0.00863647 0)" font-size="12" font-family="Segoe UI" x="" y="">
			
	</text>
	<defs/>
	<text transform="matrix(1.00032 0 0 1.00032 0.00863647 0)" font-size="12" font-family="Segoe UI" x="" y="">
			
	</text>
	<defs/>
	<text transform="matrix(1.00032 0 0 1.00032 0.00863647 0)" font-size="12" font-family="Segoe UI" x="" y="">
			
	</text>
	<path d="M89.2454 77.6965Q86.5691 78.8183 83.9098 80.0163Q86.62 85.8264 89.3303 91.6365Q88.4598 92.0478 87.5919 92.4684Q84.7675 86.713 81.9431 80.9575Q79.3208 82.2879 76.724 83.6936Q76.3048 82.9434 75.8856 82.1932Q82.1831 78.9313 88.6018 76.1028Q88.9236 76.8997 89.2454 77.6965ZM103.236 80.7346Q103.944 83.305 103.02 85.1697Q102.138 87.0425 99.9379 87.7437Q97.7241 88.5082 95.8823 87.5404Q94.0022 86.6085 93.0305 84.1259Q92.0588 81.6433 92.9247 79.6539Q93.8351 77.6712 96.3112 76.8161Q98.7719 76.0318 100.671 77.0809Q102.529 78.1641 103.236 80.7346ZM101.31 81.2849Q100.708 79.2531 99.5458 78.5269Q98.3671 77.8139 96.8095 78.3176Q95.2336 78.8543 94.7124 80.1318Q94.2089 81.4112 94.942 83.3996Q95.6514 85.3237 96.8318 86.0218Q97.9959 86.7337 99.4396 86.2422Q100.866 85.7807 101.373 84.5242Q101.898 83.27 101.31 81.2849ZM116.076 77.9306Q116.262 79.2456 116.019 80.3904Q115.785 81.5356 115.187 82.398Q114.642 83.2174 113.819 83.7577Q113.001 84.3055 112.05 84.4846Q111.236 84.6457 110.539 84.6001Q109.838 84.5599 109.066 84.3303Q109.566 86.56 110.067 88.7896Q109.22 88.9839 108.373 89.1865Q106.602 81.9338 104.831 74.6811Q105.814 74.446 106.796 74.2207Q106.921 74.7781 107.046 75.3355Q107.691 74.5633 108.577 73.9511Q109.471 73.3469 110.578 73.1341Q112.809 72.7414 114.275 74.0158Q115.705 75.3102 116.076 77.9306ZM114.058 78.2863Q113.743 76.339 112.844 75.498Q111.931 74.6649 110.406 74.9457Q109.573 75.1088 108.799 75.6156Q108.03 76.1285 107.384 76.841Q108.061 79.8567 108.738 82.8725Q109.58 83.0471 110.155 83.0542Q110.728 83.065 111.423 82.9256Q112.945 82.6382 113.655 81.4621Q114.383 80.2914 114.058 78.2863ZM136.221 82.6684Q131.526 82.5054 126.863 82.568Q126.592 75.3026 126.32 68.0372Q131.679 67.9652 137.076 68.1526Q137.026 69.0105 136.975 69.8683Q132.726 69.7002 128.524 69.6955Q128.56 71.6873 128.595 73.6792Q132.646 73.6838 136.741 73.8458Q136.69 74.7037 136.64 75.5616Q132.611 75.4022 128.626 75.3977Q128.675 78.0974 128.723 80.7972Q132.502 80.8015 136.322 80.9526Q136.272 81.8105 136.221 82.6684ZM148.313 84.145Q147.381 83.976 146.449 83.8166Q146.959 80.7531 147.468 77.6897Q147.591 76.9479 147.603 76.2817Q147.614 75.6155 147.416 75.2071Q147.211 74.7589 146.734 74.4815Q146.255 74.2064 145.443 74.0884Q144.611 73.9741 143.659 74.2254Q142.715 74.4856 141.831 74.9663Q141.393 79.0149 140.955 83.0636Q140.037 82.9687 139.12 82.8828Q139.604 77.4501 140.087 72.0175Q141.106 72.113 142.128 72.2186Q142.063 72.8206 141.998 73.4225Q143.029 72.8213 144.101 72.5487Q145.182 72.2873 146.271 72.4416Q148.266 72.7537 149.13 73.9815Q149.976 75.2165 149.609 77.1846Q148.961 80.6648 148.313 84.145ZM157.188 86.1309Q156.653 86.1218 156.042 86.0446Q155.432 85.9715 154.972 85.8506Q153.368 85.4472 152.737 84.3738Q152.091 83.3047 152.524 81.3701Q153.158 78.5398 153.791 75.7094Q153.138 75.5653 152.484 75.4255Q152.643 74.6706 152.802 73.9157Q153.465 74.0574 154.128 74.2036Q154.47 72.6741 154.813 71.1445Q155.823 71.3756 156.834 71.6167Q156.463 73.1396 156.093 74.6625Q158.121 75.1772 160.15 75.734Q159.939 76.4759 159.728 77.2179Q157.727 76.669 155.728 76.1617Q155.14 78.5765 154.552 80.9914Q154.349 81.8264 154.273 82.3055Q154.197 82.7846 154.328 83.2491Q154.445 83.6806 154.77 83.9483Q155.092 84.2172 155.846 84.4142Q156.285 84.5319 156.797 84.5352Q157.31 84.5415 157.545 84.5164Q157.593 84.53 157.641 84.5436Q157.415 85.3372 157.188 86.1309ZM170.001 85.1472Q166.025 83.5853 161.962 82.1815Q161.653 83.1389 161.726 83.9476Q161.794 84.7559 162.163 85.3827Q162.51 85.9951 163.115 86.452Q163.717 86.913 164.532 87.2086Q165.612 87.6122 166.866 87.6218Q168.098 87.6371 168.709 87.4233Q168.755 87.4422 168.8 87.4611Q168.417 88.3858 168.034 89.3105Q167.036 89.3243 166.031 89.2084Q165.014 89.0984 163.999 88.7187Q161.402 87.8058 160.388 85.9277Q159.327 84.0609 160.107 81.4706Q160.878 78.9084 162.875 77.8803Q164.916 76.8918 167.464 77.7791Q169.817 78.6621 170.592 80.3551Q171.298 82.0376 170.385 84.2279Q170.193 84.6876 170.001 85.1472ZM168.79 83.1369Q169.311 81.789 168.855 80.7611Q168.387 79.7349 166.846 79.1652Q165.292 78.6174 164.094 79.1294Q162.91 79.6554 162.393 80.843Q165.598 81.9335 168.79 83.1369ZM180.813 86.2612Q180.765 86.2358 180.718 86.2106Q180.368 85.9129 180.014 85.6767Q179.66 85.4419 179.147 85.1767Q178.318 84.7558 177.379 84.7082Q176.442 84.6701 175.473 84.867Q173.816 88.3669 172.16 91.8668Q171.332 91.4799 170.503 91.1015Q172.743 86.1288 174.984 81.1561Q175.906 81.5769 176.826 82.007Q176.481 82.7352 176.137 83.4635Q177.598 83.1901 178.587 83.2689Q179.58 83.3581 180.44 83.8004Q180.913 84.0475 181.114 84.1808Q181.314 84.3146 181.704 84.6007Q181.258 85.431 180.813 86.2612Z"/>
	<path d="M73.8609 271.214Q73.2896 272.135 72.5104 272.628Q71.728 273.117 70.863 273.204Q69.8301 273.305 68.8626 272.997Q67.8954 272.679 66.6456 271.823Q64.5428 270.323 62.4744 268.775Q66.9005 263.007 71.3267 257.239Q72.8238 258.364 74.3424 259.46Q75.4783 260.251 75.9813 260.735Q76.4882 261.215 76.8102 261.872Q77.1694 262.607 77.0807 263.333Q76.9961 264.061 76.5036 264.836Q75.9481 265.71 75.1519 266.064Q74.3509 266.413 73.4318 266.336Q73.4102 266.369 73.3887 266.401Q74.3685 267.401 74.5044 268.662Q74.6587 269.927 73.8609 271.214ZM74.8479 264.065Q75.1389 263.625 75.2075 263.237Q75.2771 262.849 75.1135 262.47Q74.9236 262.024 74.4808 261.645Q74.0405 261.264 73.3404 260.773Q72.5114 260.18 71.6885 259.578Q70.4399 261.266 69.1912 262.953Q70.1227 263.634 71.0616 264.304Q71.7483 264.784 72.2086 264.989Q72.6695 265.191 73.1831 265.185Q73.6955 265.175 74.0972 264.885Q74.4977 264.594 74.8479 264.065ZM72.1861 270.246Q72.6628 269.508 72.7339 268.937Q72.8072 268.368 72.46 267.707Q72.2285 267.26 71.7487 266.85Q71.2716 266.436 70.5339 265.926Q69.3721 265.104 68.2213 264.265Q66.6126 266.439 65.0039 268.614Q66.0234 269.359 67.0512 270.092Q68.079 270.807 68.8131 271.148Q69.5487 271.483 70.1663 271.471Q70.8223 271.445 71.2958 271.171Q71.7676 270.895 72.1861 270.246ZM84.2999 275.829Q83.1435 278.231 81.2519 279.024Q79.3465 279.791 77.3132 278.724Q75.2809 277.603 74.869 275.589Q74.4969 273.579 75.8646 271.291Q77.2323 269.002 79.1011 268.307Q80.9437 267.579 82.7673 268.584Q84.5921 269.542 84.9981 271.48Q85.4563 273.427 84.2999 275.829ZM82.677 275.031Q83.6284 273.137 83.4099 271.871Q83.207 270.607 82.0179 269.977Q80.8201 269.323 79.655 269.851Q78.479 270.367 77.423 272.204Q76.4011 273.982 76.5801 275.303Q76.7754 276.627 78.0627 277.331Q79.3402 278.007 80.5498 277.45Q81.7476 276.881 82.677 275.031ZM89.7708 284.046Q89.2418 283.985 88.6446 283.84Q88.0472 283.692 87.6051 283.51Q86.066 282.859 85.6298 281.689Q85.2081 280.517 86.0218 278.71Q87.2123 276.065 88.4029 273.42Q87.8836 273.185 87.3653 272.946Q87.6897 272.246 88.0141 271.546Q88.5247 271.781 89.0362 272.013Q89.6796 270.584 90.323 269.155Q91.0584 269.482 91.7957 269.803Q91.1757 271.243 90.5557 272.682Q92.1309 273.345 93.7129 273.98Q93.4315 274.698 93.1502 275.417Q91.5444 274.772 89.9453 274.099Q88.9622 276.382 87.9791 278.665Q87.6392 279.454 87.4829 279.913Q87.3269 280.372 87.3723 280.848Q87.4132 281.29 87.6835 281.601Q87.9552 281.911 88.6576 282.201Q89.0671 282.368 89.5617 282.425Q90.0555 282.479 90.2836 282.474Q90.3281 282.492 90.3726 282.509Q90.0717 283.278 89.7708 284.046ZM97.2165 286.667Q96.6826 286.642 96.0744 286.538Q95.4656 286.432 95.0098 286.28Q93.4213 285.735 92.9002 284.596Q92.3932 283.455 93.0792 281.595Q94.0828 278.874 95.0864 276.153Q94.5485 275.953 94.0135 275.75Q94.2885 275.029 94.5634 274.309Q95.0904 274.508 95.6204 274.705Q96.1627 273.235 96.7051 271.764Q97.4666 272.041 98.2292 272.312Q97.7109 273.791 97.1925 275.27Q98.8191 275.825 100.449 276.351Q100.218 277.087 99.9877 277.823Q98.3333 277.29 96.6823 276.727Q95.8603 279.072 95.0384 281.418Q94.7542 282.229 94.6304 282.697Q94.5069 283.166 94.5865 283.639Q94.6591 284.077 94.9522 284.369Q95.2466 284.66 95.9708 284.902Q96.3929 285.04 96.8921 285.063Q97.3904 285.083 97.6184 285.063Q97.6642 285.078 97.71 285.092Q97.4632 285.879 97.2165 286.667ZM109.433 284.307Q108.896 286.918 107.266 288.15Q105.599 289.358 103.352 288.815Q101.085 288.22 100.205 286.371Q99.3631 284.516 100.128 281.962Q100.893 279.408 102.526 278.274Q104.127 277.115 106.165 277.651Q108.187 278.139 109.061 279.921Q109.97 281.696 109.433 284.307ZM107.673 283.93Q108.134 281.862 107.609 280.686Q107.098 279.508 105.779 279.185Q104.442 278.839 103.432 279.633Q102.423 280.422 101.849 282.462Q101.293 284.436 101.783 285.672Q102.305 286.91 103.739 287.281Q105.153 287.628 106.196 286.794Q107.222 285.951 107.673 283.93ZM127.046 291.914Q126.143 291.875 125.237 291.83Q125.406 288.729 125.575 285.628Q125.613 284.926 125.59 284.269Q125.568 283.613 125.402 283.212Q125.221 282.781 124.851 282.543Q124.482 282.304 123.761 282.253Q123.057 282.199 122.317 282.525Q121.571 282.845 120.798 283.368Q120.803 283.594 120.791 283.892Q120.78 284.191 120.751 284.482Q120.404 287.956 120.057 291.43Q119.136 291.334 118.214 291.231Q118.572 288.146 118.931 285.062Q119.014 284.344 119.029 283.692Q119.045 283.04 118.9 282.629Q118.741 282.187 118.378 281.931Q118.015 281.673 117.283 281.576Q116.585 281.479 115.828 281.744Q115.064 282.002 114.267 282.458Q113.611 286.477 112.954 290.496Q112.022 290.34 111.102 290.178Q112.069 284.811 113.037 279.443Q113.869 279.59 114.712 279.731Q114.615 280.328 114.517 280.926Q115.425 280.349 116.27 280.072Q117.108 279.788 117.99 279.907Q119.002 280.035 119.654 280.584Q120.311 281.128 120.573 281.99Q121.684 281.158 122.554 280.82Q123.416 280.474 124.353 280.543Q125.96 280.641 126.671 281.767Q127.396 282.887 127.32 284.839Q127.183 288.376 127.046 291.914ZM147.089 290.94Q142.273 291.495 137.512 291.843Q137.132 284.582 136.753 277.322Q140.913 277.018 145.119 276.533Q145.236 277.384 145.352 278.236Q141.934 278.645 138.544 278.935Q138.681 280.923 138.818 282.91Q142.34 282.608 145.892 282.183Q146.008 283.035 146.124 283.886Q142.515 284.318 138.936 284.625Q139.122 287.318 139.308 290.012Q143.066 289.69 146.856 289.237Q146.972 290.088 147.089 290.94ZM159.001 288.665Q158.104 288.882 157.208 289.091Q156.513 286.065 155.819 283.038Q155.651 282.305 155.423 281.681Q155.197 281.056 154.903 280.742Q154.593 280.392 154.138 280.287Q153.684 280.181 153.029 280.32Q152.356 280.458 151.694 280.967Q151.027 281.472 150.453 282.163Q151.175 286.171 151.897 290.178Q150.977 290.34 150.045 290.497Q149.166 285.114 148.287 279.731Q149.13 279.59 149.963 279.443Q150.07 280.039 150.178 280.635Q150.811 279.793 151.547 279.245Q152.277 278.69 153.127 278.513Q154.683 278.168 155.747 279.013Q156.827 279.847 157.306 281.79Q158.154 285.228 159.001 288.665ZM167.807 286.012Q167.358 286.305 166.804 286.578Q166.249 286.848 165.792 286.991Q164.198 287.477 163.119 286.857Q162.052 286.226 161.517 284.317Q160.735 281.524 159.952 278.731Q159.409 278.882 158.853 279.033Q158.652 278.288 158.452 277.543Q159 277.394 159.536 277.245Q159.113 275.736 158.69 274.227Q159.458 274.008 160.226 273.783Q160.673 275.286 161.12 276.788Q162.752 276.288 164.382 275.758Q164.626 276.49 164.871 277.222Q163.217 277.759 161.56 278.267Q162.268 280.649 162.977 283.031Q163.222 283.855 163.396 284.307Q163.571 284.76 163.91 285.097Q164.224 285.41 164.629 285.475Q165.036 285.539 165.762 285.312Q166.184 285.177 166.602 284.903Q167.019 284.627 167.193 284.477Q167.238 284.462 167.284 284.447Q167.545 285.229 167.807 286.012ZM176.255 277.172Q172.735 278.68 169.165 280.063Q169.511 281.007 170.046 281.606Q170.585 282.203 171.24 282.468Q171.872 282.729 172.594 282.701Q173.317 282.667 174.084 282.359Q175.098 281.941 175.948 281.099Q176.787 280.249 177.041 279.666Q177.085 279.647 177.128 279.627Q177.537 280.541 177.946 281.454Q177.258 282.186 176.477 282.811Q175.689 283.431 174.705 283.836Q172.185 284.825 170.239 283.98Q168.327 283.1 167.437 280.546Q166.557 278.019 167.307 276.084Q168.015 274.145 170.006 273.369Q171.839 272.612 173.345 273.367Q174.872 274.099 175.846 276.264Q176.05 276.718 176.255 277.172ZM174.137 276.568Q173.557 275.244 172.636 274.777Q171.724 274.302 170.488 274.807Q169.24 275.297 168.801 276.395Q168.339 277.495 168.68 278.743Q171.427 277.691 174.137 276.568ZM182.656 269.885Q182.617 269.907 182.577 269.929Q182.2 270.026 181.868 270.158Q181.536 270.289 181.11 270.518Q180.421 270.884 179.951 271.553Q179.475 272.221 179.138 273.057Q180.871 276.52 182.604 279.983Q181.779 280.391 180.948 280.794Q178.588 275.877 176.228 270.96Q176.978 270.596 177.722 270.228Q178.083 270.948 178.443 271.669Q178.934 270.435 179.437 269.763Q179.933 269.088 180.623 268.717Q181.003 268.511 181.184 268.439Q181.366 268.367 181.739 268.238Q182.197 269.062 182.656 269.885ZM189.096 276.462Q185.305 269.991 181.513 263.52Q187.004 260.049 192.241 256.216Q196.874 262.114 201.507 268.012Q195.444 272.449 189.096 276.462ZM189.53 274.751Q194.74 271.416 199.756 267.789Q195.952 262.83 192.148 257.872Q187.707 261.082 183.09 264.038Q186.31 269.394 189.53 274.751Z"/>
</svg>
