<?xml version="1.0" encoding="utf-8" ?>
<svg xmlns="http://www.w3.org/2000/svg" xmlns:xlink="http://www.w3.org/1999/xlink" width="259" height="313">
	<defs/>
	<path fill="none" stroke="black" stroke-width="0.25" stroke-miterlimit="10" transform="matrix(1.00032 0 0 1.00032 0.00863647 0)" d="M248.2 165.5C246.6 152.6 242.8 140.2 237.1 128.5C235.4 125 233.4 121.4 231.3 118C215.6 92.8 191.8 75 164.3 67L164.3 51.9C164.3 44.3 159.3 37.8 152.5 35.4C152.6 34.1 152.7 33.1 152.7 32.6C152.7 20.7 143 11 131.1 11C119.2 11 109.5 20.7 109.5 32.6C109.5 33.5 109.5 34.3 109.6 35.2C102.4 37.3 97.1 44 97.1 51.9L97.1 67C69.8 75 46 92.7 30.3 117.6C28.2 120.9 26.2 124.5 24.4 128.1C18.6 139.8 14.8 152.3 13.2 165.2C12.6 170 12.3 174.8 12.2 179.4C12.2 179.8 12.2 180.2 12.2 180.6C12.2 202 18 223 28.9 241.3C33.3 248.6 38.4 255.3 44.1 261.4C66.4 285.3 98 299 130.7 299C163.5 299 195.2 285.2 217.5 261.1C222.8 255.4 227.5 249.2 231.5 242.8C243.1 224.1 249.2 202.6 249.2 180.5L249.2 180C249.1 175.3 248.8 170.3 248.2 165.5ZM130.7 19.9C135.4 19.9 139.1 23.7 139.1 28.3C139.1 32.9 135.3 36.7 130.7 36.7C126 36.7 122.3 32.9 122.3 28.3C122.3 23.7 126 19.9 130.7 19.9ZM130.4 273.1C79.4 273.1 38 231.7 38 180.7C38 129.7 79.4 88.3 130.4 88.3C181.4 88.3 222.8 129.7 222.8 180.7C222.8 231.7 181.4 273.1 130.4 273.1Z"/>
	<defs/>
	<text transform="matrix(1.00032 0 0 1.00032 0.00863647 0)" font-size="12" font-family="Segoe UI" x="" y="">
			
	</text>
	<defs/>
	<text transform="matrix(1.00032 0 0 1.00032 0.00863647 0)" font-size="12" font-family="Segoe UI" x="" y="">
			
	</text>
	<defs/>
	<text transform="matrix(1.00032 0 0 1.00032 0.00863647 0)" font-size="12" font-family="Segoe UI" x="" y="">
			
	</text>
	<defs/>
	<text transform="matrix(1.00032 0 0 1.00032 0.00863647 0)" font-size="12" font-family="Segoe UI" x="" y="">
			
	</text>
	<path d="M50.6777 109.384Q52.1997 110.655 52.8837 112.358Q53.5495 114.102 53.3125 115.858Q53.1825 117.061 52.667 118.247Q52.1839 119.427 51.0862 121.104Q50.1407 122.647 49.2531 124.193Q42.8966 120.664 36.5402 117.135Q37.6228 115.248 38.7716 113.371Q40.2029 111.186 41.3407 110.085Q42.5033 109.001 43.5811 108.456Q45.4449 107.568 47.2817 107.746Q49.0507 108.027 50.6777 109.384ZM49.2373 111.116Q47.8934 110.061 46.5325 109.901Q45.1655 109.761 43.7706 110.51Q42.7659 111.072 41.9401 111.924Q41.1297 112.784 40.25 114.14Q39.6775 115.057 39.1214 115.976Q43.9422 118.846 48.763 121.716Q49.2372 120.932 49.7258 120.149Q50.5056 118.949 50.94 117.941Q51.3974 116.93 51.4869 115.856Q51.6307 114.504 51.0936 113.342Q50.5736 112.166 49.2373 111.116ZM56.9277 100.465Q56.8866 100.502 56.8455 100.54Q56.4353 100.786 56.0839 101.055Q55.7344 101.324 55.3013 101.738Q54.6125 102.409 54.2477 103.303Q53.8981 104.195 53.7671 105.19Q56.5699 107.862 59.3726 110.533Q58.7511 111.194 58.1418 111.857Q54.1008 108.194 50.0598 104.531Q50.7617 103.767 51.4768 103.007Q52.06 103.563 52.6431 104.119Q52.8684 102.622 53.2801 101.688Q53.7084 100.752 54.4345 100.054Q54.8391 99.6715 55.0386 99.5183Q55.2386 99.3655 55.6537 99.0756Q56.2907 99.7701 56.9277 100.465ZM57.7014 94.7105Q56.7407 95.5193 55.796 96.3372Q55.1678 95.6216 54.5397 94.906Q55.5043 94.071 56.4849 93.2454Q57.0932 93.9779 57.7014 94.7105ZM65.7418 104.586Q65.0091 105.204 64.2881 105.827Q60.6964 101.723 57.1047 97.6184Q57.9264 96.9082 58.7606 96.2048Q62.2512 100.396 65.7418 104.586ZM73.6347 92.2007Q74.3147 93.3415 74.531 94.4926Q74.757 95.64 74.5416 96.6657Q74.3628 97.6292 73.8255 98.4402Q73.3028 99.2523 72.489 99.7948Q71.7893 100.272 71.1213 100.511Q70.456 100.754 69.6533 100.851Q70.9965 102.7 72.3398 104.548Q71.6468 105.058 70.963 105.572Q66.4433 99.6295 61.9237 93.6871Q62.7383 93.0746 63.5626 92.4687Q63.8985 92.9309 64.2343 93.393Q64.5336 92.4194 65.1287 91.4918Q65.7406 90.566 66.7146 89.9109Q68.6029 88.6887 70.4512 89.2927Q72.2797 89.9274 73.6347 92.2007ZM71.9075 93.3132Q70.8606 91.6412 69.7085 91.2139Q68.5483 90.7987 67.2467 91.6575Q66.519 92.1513 65.9851 92.9365Q65.4637 93.7232 65.1413 94.6413Q66.9581 97.1417 68.775 99.6422Q69.6215 99.4661 70.1586 99.2417Q70.6977 99.0203 71.2943 98.6107Q72.5959 97.7422 72.7781 96.3912Q72.9855 95.0348 71.9075 93.3132Z"/>
	<path d="M32.7662 237.601Q32.295 236.727 31.8353 235.851Q37.3978 232.969 42.9602 230.088Q38.3357 230.382 33.6722 230.501Q33.4429 230.001 33.2175 229.5Q36.3922 226.106 39.6842 222.887Q33.856 225.185 28.0277 227.482Q27.7088 226.661 27.3994 225.84Q34.2152 223.309 41.031 220.778Q41.4108 221.779 41.8079 222.781Q38.7049 225.855 35.7108 229.09Q40.0994 228.917 44.4529 228.59Q44.9814 229.612 45.529 230.633Q39.1476 234.117 32.7662 237.601ZM46.4789 235.814Q46.0111 235.063 45.5538 234.311Q46.3702 233.821 47.1866 233.331Q47.633 234.065 48.0898 234.799Q47.2843 235.306 46.4789 235.814ZM35.645 242.508Q35.1651 241.736 34.6945 240.963Q39.3674 238.15 44.0404 235.338Q44.4557 236.02 44.8795 236.701Q40.2622 239.604 35.645 242.508ZM42.9969 251.569Q42.082 251.135 41.3811 250.644Q40.6846 250.148 40.1257 249.417Q39.4267 248.482 39.1165 247.47Q38.8188 246.457 38.9902 245.476Q39.1675 244.495 39.8399 243.573Q40.5189 242.659 41.7104 241.859Q43.9314 240.366 45.9452 240.613Q47.9538 240.816 49.2186 242.531Q49.7167 243.182 49.9972 243.97Q50.2884 244.76 50.4139 245.52Q49.623 246.165 48.8321 246.81Q48.8038 246.776 48.7756 246.741Q48.8048 245.735 48.5799 244.885Q48.3666 244.038 47.9078 243.436Q47.0751 242.316 45.7374 242.258Q44.3964 242.182 42.7338 243.349Q41.119 244.482 40.7562 245.802Q40.4136 247.137 41.3487 248.395Q41.6771 248.827 42.136 249.183Q42.5973 249.536 43.0586 249.743Q43.4622 249.921 43.8555 250.045Q44.2491 250.167 44.5036 250.218Q44.5336 250.254 44.5636 250.291Q43.7803 250.93 42.9969 251.569ZM54.9028 252.55Q54.8721 252.519 54.8415 252.487Q54.6547 252.156 54.4464 251.878Q54.2396 251.599 53.9156 251.259Q53.3986 250.709 52.6457 250.449Q51.8896 250.177 50.9897 250.065Q48.0969 252.639 45.2041 255.213Q44.5892 254.515 43.9828 253.814Q48.1251 250.266 52.2674 246.718Q52.8066 247.341 53.3535 247.962Q52.7516 248.498 52.1497 249.033Q53.4682 249.185 54.2305 249.474Q54.9945 249.756 55.5162 250.306Q55.806 250.608 55.9193 250.76Q56.033 250.912 56.2478 251.23Q55.5753 251.89 54.9028 252.55ZM60.139 262.014Q58.4474 264.075 56.4161 264.392Q54.369 264.672 52.638 263.138Q50.9382 261.563 51.0358 259.517Q51.1792 257.491 53.0641 255.606Q54.949 253.72 56.9112 253.482Q58.8592 253.207 60.3687 254.606Q61.9075 255.969 61.8461 257.953Q61.8306 259.953 60.139 262.014ZM58.7442 260.847Q60.1186 259.234 60.204 257.95Q60.3074 256.672 59.3064 255.778Q58.3101 254.862 57.0588 255.1Q55.801 255.323 54.3307 256.849Q52.9079 258.326 52.7555 259.646Q52.6215 260.974 53.7002 261.966Q54.7831 262.933 56.0958 262.686Q57.4014 262.423 58.7442 260.847Z"/>
</svg>
