<?xml version="1.0" encoding="utf-8" ?>
<svg xmlns="http://www.w3.org/2000/svg" xmlns:xlink="http://www.w3.org/1999/xlink" width="259" height="313">
	<defs/>
	<path fill="none" stroke="black" stroke-width="0.25" stroke-miterlimit="10" transform="matrix(1.00032 0 0 1.00032 0.00863647 0)" d="M248.2 165.5C246.6 152.6 242.8 140.2 237.1 128.5C235.4 125 233.4 121.4 231.3 118C215.6 92.8 191.8 75 164.3 67L164.3 51.9C164.3 44.3 159.3 37.8 152.5 35.4C152.6 34.1 152.7 33.1 152.7 32.6C152.7 20.7 143 11 131.1 11C119.2 11 109.5 20.7 109.5 32.6C109.5 33.5 109.5 34.3 109.6 35.2C102.4 37.3 97.1 44 97.1 51.9L97.1 67C69.8 75 46 92.7 30.3 117.6C28.2 120.9 26.2 124.5 24.4 128.1C18.6 139.8 14.8 152.3 13.2 165.2C12.6 170 12.3 174.8 12.2 179.4C12.2 179.8 12.2 180.2 12.2 180.6C12.2 202 18 223 28.9 241.3C33.3 248.6 38.4 255.3 44.1 261.4C66.4 285.3 98 299 130.7 299C163.5 299 195.2 285.2 217.5 261.1C222.8 255.4 227.5 249.2 231.5 242.8C243.1 224.1 249.2 202.6 249.2 180.5L249.2 180C249.1 175.3 248.8 170.3 248.2 165.5ZM130.7 19.9C135.4 19.9 139.1 23.7 139.1 28.3C139.1 32.9 135.3 36.7 130.7 36.7C126 36.7 122.3 32.9 122.3 28.3C122.3 23.7 126 19.9 130.7 19.9ZM130.4 273.1C79.4 273.1 38 231.7 38 180.7C38 129.7 79.4 88.3 130.4 88.3C181.4 88.3 222.8 129.7 222.8 180.7C222.8 231.7 181.4 273.1 130.4 273.1Z"/>
	<defs/>
	<text transform="matrix(1.00032 0 0 1.00032 0.00863647 0)" font-size="12" font-family="Segoe UI" x="" y="">
			
	</text>
	<defs/>
	<text transform="matrix(1.00032 0 0 1.00032 0.00863647 0)" font-size="12" font-family="Segoe UI" x="" y="">
			
	</text>
	<defs/>
	<text transform="matrix(1.00032 0 0 1.00032 0.00863647 0)" font-size="12" font-family="Segoe UI" x="" y="">
			
	</text>
	<defs/>
	<text transform="matrix(1.00032 0 0 1.00032 0.00863647 0)" font-size="12" font-family="Segoe UI" x="" y="">
			
	</text>
	<path d="M45.4586 132.432Q38.7456 129.946 32.0327 127.461Q32.65 125.853 33.3115 124.245Q38.761 124.454 44.1501 124.926Q45.6413 125.11 46.3711 125.225Q45.7931 124.639 44.7076 123.445Q41.2674 119.345 38.029 115.006Q38.834 113.694 39.6446 112.429Q45.6344 116.349 51.6241 120.268Q51.1466 121.009 50.6823 121.751Q45.5809 118.609 40.4796 115.468Q44.383 120.631 48.5596 125.478Q48.1605 126.252 47.7752 127.026Q41.3332 126.42 34.8043 126.201Q40.4516 128.49 46.099 130.78Q45.7713 131.606 45.4586 132.432ZM53.3413 117.773Q47.5393 113.58 41.7373 109.388Q45.623 104.425 49.8852 99.7502Q50.4882 100.342 51.0912 100.933Q47.6603 104.645 44.4448 108.579Q46.185 109.913 47.9251 111.246Q50.7658 107.756 53.8186 104.417Q54.4222 105.001 55.0259 105.585Q52.0372 108.854 49.2583 112.268Q51.1923 113.75 53.1262 115.232Q56.0264 111.693 59.1296 108.359Q59.73 108.953 60.3304 109.547Q56.6621 113.542 53.3413 117.773ZM62.1026 107.815Q57.1846 102.614 52.2666 97.4126Q53.0774 96.6554 53.9005 95.9054Q58.1242 100.598 62.3479 105.29Q65.0843 102.938 67.9718 100.672Q68.4784 101.348 68.9851 102.024Q65.422 104.854 62.1026 107.815ZM71.1447 100.458Q67.0371 94.5961 62.9295 88.7338Q63.8168 88.1192 64.7127 87.5131Q68.6916 93.4635 72.6706 99.414Q71.9036 99.9329 71.1447 100.458ZM72.4606 94.073Q73.2126 93.5163 73.9731 92.9654Q74.6372 93.8201 75.4009 94.168Q76.1602 94.5214 77.2392 94.3916Q78.3182 94.2742 79.4159 93.677Q80.4005 93.1573 81.0146 92.4789Q81.639 91.8041 81.7692 91.1132Q81.9051 90.4216 81.6146 89.8244Q81.3198 89.2185 80.7229 88.9506Q80.1233 88.686 79.1039 88.8163Q78.4477 88.9006 76.3432 89.4819Q74.2522 90.1087 73.3017 90.1743Q72.0718 90.2794 71.1913 89.8819Q70.3053 89.4914 69.7876 88.6518Q69.2187 87.7291 69.3197 86.5625Q69.4354 85.3928 70.3613 84.2811Q71.3105 83.1767 72.7873 82.3616Q74.4335 81.4887 75.9345 81.2978Q77.4345 81.1284 78.5515 81.696Q79.6588 82.2742 80.2435 83.3914Q79.3433 83.8938 78.4502 84.4039Q77.7006 83.26 76.5248 83.0726Q75.343 82.8982 73.6615 83.7873Q71.934 84.7422 71.467 85.7343Q71.0148 86.7268 71.4656 87.4926Q71.857 88.1574 72.6405 88.2764Q73.412 88.4066 75.8902 87.6282Q78.388 86.9126 79.4089 86.8384Q80.8953 86.7561 81.8619 87.2759Q82.8208 87.804 83.3044 88.8499Q83.7839 89.887 83.5892 91.0932Q83.4104 92.2973 82.5265 93.3532Q81.6671 94.4155 80.296 95.1332Q78.5848 96.071 77.1611 96.2326Q75.7377 96.4164 74.5023 95.8355Q73.2555 95.269 72.4606 94.073ZM84.9352 87.5055Q85.756 87.0654 86.5827 86.632Q87.1165 87.5734 87.8198 88.0282Q88.5184 88.4874 89.5988 88.5144Q90.6764 88.5531 91.8361 88.1191Q92.8718 87.7451 93.5632 87.1613Q94.2626 86.5822 94.4795 85.9175Q94.7013 85.253 94.4945 84.622Q94.2846 83.9817 93.7367 83.6328Q93.1859 83.2867 92.1739 83.2709Q91.522 83.2608 89.3866 83.5335Q87.2526 83.8501 86.3109 83.7763Q85.0888 83.7 84.2794 83.1778Q83.464 82.6612 83.0734 81.7555Q82.6441 80.7602 82.905 79.6237Q83.179 78.4864 84.2351 77.5263Q85.3095 76.5762 86.8562 75.9878Q88.5712 75.365 90.0541 75.3926Q91.5313 75.4397 92.5436 76.1589Q93.5453 76.8865 93.9734 78.0726Q93.0367 78.4418 92.1042 78.819Q91.5207 77.5826 90.4016 77.2296Q89.2745 76.8876 87.5213 77.5221Q85.7094 78.2126 85.1196 79.1233Q84.5424 80.0364 84.8791 80.8588Q85.1714 81.5728 85.9229 81.8052Q86.661 82.0465 89.1903 81.6371Q91.7222 81.2883 92.7268 81.36Q94.1845 81.4886 95.0593 82.138Q95.9257 82.7939 96.265 83.8952Q96.6014 84.9871 96.2589 86.1525Q95.9304 87.318 94.9291 88.2383Q93.947 89.168 92.5042 89.684Q90.6916 90.3679 89.2653 90.3237Q87.8343 90.3002 86.6974 89.5465Q85.5477 88.8045 84.9352 87.5055ZM98.4342 87.4626Q99.2433 79.7953 100.432 72.1067Q101.565 71.8397 102.7 71.5837Q107.316 77.9403 111.559 84.4554Q110.492 84.6358 109.427 84.8269Q108.193 82.8533 106.927 80.8927Q103.867 81.5513 100.823 82.2968Q100.586 84.6016 100.383 86.9038Q99.407 87.1786 98.4342 87.4626ZM100.998 80.6586Q103.501 80.0522 106.015 79.5037Q104.826 77.7277 103.611 75.9631Q102.477 74.3658 101.855 73.3163Q101.868 74.7268 101.644 76.1746Q101.305 78.4173 100.998 80.6586ZM128.824 77.9824Q129.812 78.2201 130.792 78.4662Q130.162 80.7949 128.596 82.0222Q127.058 83.2709 124.81 83.3428Q122.472 83.466 120.93 82.6291Q119.36 81.8141 118.428 80.1063Q117.473 78.406 117.261 76.3662Q117.031 74.1418 117.788 72.3929Q118.579 70.648 120.306 69.6413Q122.053 68.6593 124.22 68.5499Q126.667 68.4712 128.337 69.5386Q129.972 70.6279 130.592 72.6143Q129.576 72.8291 128.562 73.0524Q128 71.4955 126.937 70.7999Q125.859 70.1137 124.244 70.1714Q122.38 70.264 121.178 71.1315Q119.99 72.0107 119.595 73.3794Q119.211 74.7493 119.332 76.1601Q119.488 77.9796 120.167 79.29Q120.831 80.6043 122.044 81.1938Q123.241 81.7964 124.582 81.73Q126.207 81.671 127.312 80.7261Q128.433 79.7921 128.824 77.9824ZM131.498 83.0179Q134.511 75.9474 137.877 68.9624Q139.065 69.0472 140.247 69.1429Q142.803 76.5896 144.925 84.0727Q143.853 83.9279 142.775 83.7929Q142.177 81.5409 141.543 79.2914Q138.369 79.0036 135.242 78.8062Q134.35 80.9353 133.485 83.0711Q132.493 83.0401 131.498 83.0179ZM135.881 77.2943Q138.466 77.4636 141.078 77.693Q140.46 75.6424 139.811 73.5946Q139.19 71.7309 138.9 70.543Q138.486 71.8928 137.826 73.2069Q136.816 75.2453 135.881 77.2943ZM146.444 84.2967Q147.538 77.2224 148.631 70.1482Q152.113 70.7374 155.53 71.4166Q157.611 71.8803 158.605 72.5126Q159.595 73.1541 159.998 74.2645Q160.391 75.3761 160.089 76.5186Q159.701 77.9917 158.415 78.7382Q157.148 79.4998 154.981 79.2838Q155.665 79.81 155.982 80.2447Q156.643 81.1859 157.113 82.4788Q157.86 84.6819 158.563 86.8889Q157.416 86.5797 156.269 86.2844Q155.709 84.6122 155.124 82.9425Q154.588 81.4975 154.199 80.7108Q153.804 79.9256 153.432 79.567Q153.065 79.2111 152.648 79.0161Q152.338 78.8843 151.601 78.7399Q150.489 78.5313 149.368 78.3327Q148.829 81.4653 148.289 84.598Q147.37 84.4437 146.444 84.2967ZM149.646 76.7158Q151.746 77.0972 153.818 77.5125Q155.155 77.8016 155.97 77.7105Q156.79 77.6259 157.323 77.1457Q157.861 76.6681 158.025 75.9945Q158.266 75.0079 157.632 74.1824Q156.991 73.3608 155.283 72.9816Q152.88 72.492 150.449 72.0481Q150.048 74.382 149.646 76.7158ZM160.293 87.382Q162.314 80.5151 164.336 73.6482Q167.038 74.479 169.739 75.3818Q171.566 76.0347 172.444 76.5799Q173.644 77.3442 174.285 78.3963Q175.103 79.7637 175.106 81.379Q175.092 82.9913 174.339 84.7508Q173.697 86.25 172.835 87.2523Q171.982 88.26 171.102 88.7878Q170.23 89.3231 169.391 89.4973Q168.558 89.679 167.538 89.5504Q166.504 89.427 165.26 88.9817Q162.779 88.1478 160.293 87.382ZM162.624 86.3255Q164.118 86.8077 165.609 87.3142Q166.989 87.8055 167.863 87.8471Q168.72 87.8893 169.347 87.618Q170.236 87.2429 171.019 86.3299Q171.809 85.4217 172.418 83.919Q173.26 81.8371 172.957 80.4165Q172.636 78.9953 171.684 78.1931Q170.974 77.6169 169.153 76.9664Q167.529 76.4159 165.905 75.8918Q164.265 81.1086 162.624 86.3255ZM174.167 92.5976Q177.184 86.1062 180.201 79.6148Q181.19 80.0803 182.175 80.5565Q179.028 86.986 175.882 93.4156Q175.026 93.0022 174.167 92.5976ZM178.851 94.9348Q182.226 88.6223 185.601 82.3098Q186.594 82.8478 187.583 83.397Q188.403 90.4075 188.723 97.3189Q191.891 92.6764 195.058 88.0339Q195.936 88.6395 196.807 89.2546Q192.645 95.079 188.484 100.903Q187.688 100.341 186.884 99.7882Q186.669 92.9463 185.955 85.9992Q183.203 90.9055 180.452 95.8118Q179.654 95.3692 178.851 94.9348ZM189.788 101.854Q196.429 97.9361 203.383 94.3984Q204.292 95.1875 205.213 96.0075Q202.787 103.548 199.855 110.774Q199.104 109.99 198.339 109.216Q199.252 107.071 200.122 104.898Q197.751 102.725 195.351 100.693Q193.355 101.868 191.387 103.075Q190.592 102.46 189.788 101.854ZM196.778 99.8678Q198.754 101.553 200.722 103.341Q201.465 101.326 202.173 99.2893Q202.786 97.4135 203.26 96.2826Q202.114 97.1097 200.801 97.7676Q198.776 98.8012 196.778 99.8678ZM200.833 111.83Q206.134 107.02 211.435 102.209Q212.194 103.056 212.94 103.913Q208.153 108.029 203.366 112.146Q205.63 114.916 207.781 117.846Q207.087 118.328 206.393 118.809Q203.717 115.217 200.833 111.83ZM211.157 117.646Q211.75 118.42 212.333 119.201Q211.49 119.881 211.158 120.66Q210.818 121.432 210.962 122.522Q211.084 123.605 211.676 124.701Q212.181 125.681 212.845 126.293Q213.5 126.916 214.184 127.054Q214.869 127.2 215.474 126.925Q216.087 126.646 216.371 126.059Q216.65 125.467 216.539 124.444Q216.463 123.783 215.883 121.644Q215.223 119.501 215.132 118.523Q214.984 117.251 215.352 116.34Q215.708 115.42 216.537 114.885Q217.448 114.298 218.642 114.417Q219.839 114.554 221.008 115.545Q222.161 116.562 223.022 118.125Q223.925 119.863 224.119 121.424Q224.276 122.975 223.687 124.096Q223.08 125.199 221.944 125.746Q221.465 124.818 220.971 123.895Q222.13 123.169 222.329 121.971Q222.507 120.76 221.595 118.997Q220.591 117.179 219.571 116.674Q218.548 116.188 217.787 116.648Q217.127 117.047 217.032 117.858Q216.921 118.654 217.745 121.21Q218.456 123.763 218.513 124.795Q218.558 126.286 218.007 127.232Q217.443 128.167 216.38 128.611Q215.326 129.053 214.135 128.834Q212.947 128.639 211.931 127.767Q210.901 126.92 210.213 125.571Q209.288 123.874 209.116 122.449Q208.905 121.011 209.454 119.75Q209.98 118.469 211.157 117.646Z"/>
</svg>
